<?xml version="1.0" encoding="UTF-8"?>
<svg version="1.1" xmlns="http://www.w3.org/2000/svg" width="1818" height="459">
<path d="M0 0 C2.5 1.5625 2.5 1.5625 4 3 C4 3.66 4 4.32 4 5 C4.66 5 5.32 5 6 5 C10.14497395 12.91313209 11.3017539 18.97886955 11.1875 27.8125 C11.18685547 28.77865234 11.18621094 29.74480469 11.18554688 30.74023438 C11.14052002 37.85947998 11.14052002 37.85947998 10 39 C9.45783976 42.22562564 9.03401348 45.46161415 8.59765625 48.703125 C8.05039176 51.72202191 7.25254352 54.21191149 6 57 C5.34 57 4.68 57 4 57 C3.96132812 57.92619141 3.96132812 57.92619141 3.921875 58.87109375 C3.54280516 64.53129566 2.48381266 68.91828506 -0.0625 73.9921875 C-0.99243562 75.98379963 -1.53857663 77.85630394 -2 80 C-2.66 80 -3.32 80 -4 80 C-4.12375 80.886875 -4.2475 81.77375 -4.375 82.6875 C-4.94412736 85.70387502 -5.76614436 88.20326054 -7 91 C-7.66 91 -8.32 91 -9 91 C-9.12375 91.721875 -9.2475 92.44375 -9.375 93.1875 C-9.9904931 95.95721894 -10.88444374 98.3970354 -12 101 C-12.66 101 -13.32 101 -14 101 C-14.33 102.98 -14.66 104.96 -15 107 C-15.66 107 -16.32 107 -17 107 C-17.103125 107.55558594 -17.20625 108.11117187 -17.3125 108.68359375 C-18.14193175 111.47821321 -19.45198419 113.5953498 -21 116.0625 C-22.68796347 118.76080698 -23.99049361 120.97148084 -25 124 C-25.66 124 -26.32 124 -27 124 C-27.08378906 124.69996094 -27.16757813 125.39992187 -27.25390625 126.12109375 C-28.18004157 129.69471539 -29.82593689 132.0421629 -31.9375 135.0625 C-35.27169164 139.85496085 -35.27169164 139.85496085 -38 145 C-38.66 145 -39.32 145 -40 145 C-40.09410156 145.54140625 -40.18820312 146.0828125 -40.28515625 146.640625 C-41.21139253 149.69771088 -42.7245356 152.05769005 -44.4375 154.75 C-45.36369141 156.22726563 -45.36369141 156.22726563 -46.30859375 157.734375 C-46.86675781 158.48203125 -47.42492188 159.2296875 -48 160 C-48.66 160 -49.32 160 -50 160 C-50.2475 160.680625 -50.495 161.36125 -50.75 162.0625 C-52.24197908 165.56865083 -54.06835511 168.71620368 -56 172 C-56.66 172 -57.32 172 -58 172 C-58.2165625 172.66386719 -58.433125 173.32773438 -58.65625 174.01171875 C-60.45136558 178.00376357 -62.90274929 181.30587598 -65.5 184.8125 C-65.99886719 185.50537109 -66.49773438 186.19824219 -67.01171875 186.91210938 C-67.49253906 187.56630859 -67.97335937 188.22050781 -68.46875 188.89453125 C-69.12520508 189.78942261 -69.12520508 189.78942261 -69.79492188 190.70239258 C-70.39143555 191.34470825 -70.39143555 191.34470825 -71 192 C-71.66 192 -72.32 192 -73 192 C-73.33 193.32 -73.66 194.64 -74 196 C-74.66 196 -75.32 196 -76 196 C-76.309375 196.78375 -76.61875 197.5675 -76.9375 198.375 C-78 201 -78 201 -79 203 C-79.66 203 -80.32 203 -81 203 C-81.33 204.32 -81.66 205.64 -82 207 C-82.66 207 -83.32 207 -84 207 C-84 207.66 -84 208.32 -84 209 C-84.66 209 -85.32 209 -86 209 C-86.33 210.32 -86.66 211.64 -87 213 C-87.66 213 -88.32 213 -89 213 C-89.20625 213.66 -89.4125 214.32 -89.625 215 C-91.49124252 219.07180186 -93.97561527 222.68796998 -97 226 C-97.66 226 -98.32 226 -99 226 C-99.309375 226.61875 -99.61875 227.2375 -99.9375 227.875 C-100.625 229.25 -101.3125 230.625 -102 232 C-102.66 232 -103.32 232 -104 232 C-104.0992502 236.03833789 -104.17164562 240.07619872 -104.21972656 244.11547852 C-104.2397799 245.48800023 -104.26703028 246.86043717 -104.30175781 248.23266602 C-104.35054552 250.21072044 -104.37088876 252.18941119 -104.390625 254.16796875 C-104.41157227 255.35672607 -104.43251953 256.5454834 -104.45410156 257.77026367 C-103.90709429 261.66077936 -102.79922965 263.28609747 -100 266 C-91.91586988 267.79647336 -84.81335007 262.91181665 -78 259 C-75.59330476 257.40866632 -73.30905511 255.73179133 -71 254 C-70.34 254 -69.68 254 -69 254 C-69 253.34 -69 252.68 -69 252 C-68.34 252 -67.68 252 -67 252 C-66.67 248.7 -66.34 245.4 -66 242 C-65.34 242 -64.68 242 -64 242 C-63.938125 241.0925 -63.87625 240.185 -63.8125 239.25 C-62.66109085 231.17368722 -58.70864003 223.5584629 -54 217 C-53.67 216.01 -53.34 215.02 -53 214 C-52.34 214 -51.68 214 -51 214 C-51 213.01 -51 212.02 -51 211 C-50.34 211 -49.68 211 -49 211 C-48.67 209.68 -48.34 208.36 -48 207 C-47.34 207 -46.68 207 -46 207 C-46 206.01 -46 205.02 -46 204 C-45.34 204 -44.68 204 -44 204 C-43.67 202.68 -43.34 201.36 -43 200 C-42.34 200 -41.68 200 -41 200 C-40.690625 199.38125 -40.38125 198.7625 -40.0625 198.125 C-39.375 196.75 -38.6875 195.375 -38 194 C-37.34 194 -36.68 194 -36 194 C-35.731875 193.360625 -35.46375 192.72125 -35.1875 192.0625 C-34 190 -34 190 -31 189 C-30.30926728 187.67897368 -29.64662266 186.3431684 -29 185 C-23.46708304 178.54890501 -17.11781909 173.565285 -10 169 C-9.36416992 168.57928223 -8.72833984 168.15856445 -8.07324219 167.72509766 C2.52877673 160.73305883 12.79858933 155.55606055 25 152 C25.85980469 151.74734375 26.71960937 151.4946875 27.60546875 151.234375 C36.91598741 148.86010795 46.20832168 147.69035377 55 152 C55 155.3 55 158.6 55 162 C56.5675 161.835 58.135 161.67 59.75 161.5 C75.95832942 160.0969534 75.95832942 160.0969534 81.25 162.4375 C83.86156652 166.26157955 83.58051023 169.50868401 83 174 C81.8192683 179.17705439 79.90894415 184.05409926 78 189 C77.34 189 76.68 189 76 189 C75.87625 190.051875 75.7525 191.10375 75.625 192.1875 C75.08859218 195.45958771 74.36119965 198.00536076 73 201 C72.34 201 71.68 201 71 201 C70.89300781 202.02609375 70.78601562 203.0521875 70.67578125 204.109375 C70.00284474 207.9836222 68.92679247 210.74499542 67.1875 214.25 C64.39552339 220.05596582 62.07642222 225.90509008 60 232 C59.34 232 58.68 232 58 232 C57.87625 233.051875 57.7525 234.10375 57.625 235.1875 C57.08859218 238.45958771 56.36119965 241.00536076 55 244 C54.34 244 53.68 244 53 244 C52.938125 245.11375 52.87625 246.2275 52.8125 247.375 C52.16800296 252.82392948 49.63164357 257.26109941 47 262 C46.34 262 45.68 262 45 262 C45 262.99 45 263.98 45 265 C49.71844946 262.52680306 54.22907455 259.91726323 58.5625 256.8125 C62.96614099 253.66802511 67.47763825 250.74484867 72.0625 247.875 C72.75303467 247.43913574 73.44356934 247.00327148 74.1550293 246.55419922 C77.81463127 244.26831383 81.46037919 242.26516626 85.375 240.4375 C87.98402233 239.06589969 88.81052974 238.44385862 89.98046875 235.703125 C90.50211178 233.44850682 90.8442277 231.306435 91 229 C91.66 229 92.32 229 93 229 C93.12375 227.96875 93.2475 226.9375 93.375 225.875 C93.93889814 222.37883154 94.78682059 219.31602373 96 216 C96.66 216 97.32 216 98 216 C98.12375 215.0925 98.2475 214.185 98.375 213.25 C98.92109677 210.41029677 99.57263803 208.47409409 101 206 C101.66 206 102.32 206 103 206 C103.061875 205.34 103.12375 204.68 103.1875 204 C104.30378495 199.8783325 106.33761566 196.34249498 109 193 C109.66 193 110.32 193 111 193 C111.309375 192.38125 111.61875 191.7625 111.9375 191.125 C112.625 189.75 113.3125 188.375 114 187 C114.66 187 115.32 187 116 187 C116.2475 186.443125 116.495 185.88625 116.75 185.3125 C118.22924818 182.57589087 119.93467439 180.32349131 122 178 C122.66 178 123.32 178 124 178 C124 177.34 124 176.68 124 176 C143.11029105 159.4033148 166.33618348 148.20711039 191.95703125 149.78857422 C201.17338737 150.74237016 208.57644257 155.57644257 215 162 C215 162.99 215 163.98 215 165 C215.66 165 216.32 165 217 165 C222.06009774 177.88394365 219.31143291 192.64392976 214 205 C212.69578913 207.01911164 211.3670353 209.02288284 210 211 C209.67 211.99 209.34 212.98 209 214 C208.34 214 207.68 214 207 214 C206.690625 214.61875 206.38125 215.2375 206.0625 215.875 C205.375 217.25 204.6875 218.625 204 220 C203.34 220 202.68 220 202 220 C201.67 220.99 201.34 221.98 201 223 C200.34 223 199.68 223 199 223 C198.731875 223.639375 198.46375 224.27875 198.1875 224.9375 C197 227 197 227 194 228 C194 228.66 194 229.32 194 230 C192.03001017 231.48364859 190.08256931 232.81477794 188 234.125 C187.37134033 234.52243408 186.74268066 234.91986816 186.0949707 235.3293457 C169.26129293 245.77132767 151.55035073 252.755837 132 256 C132.495 256.94875 132.99 257.8975 133.5 258.875 C135 262 135 262 135 264 C135.680625 264.268125 136.36125 264.53625 137.0625 264.8125 C140 266 140 266 143.15234375 267.546875 C147.28443877 269.31081817 151.04833805 269.4998455 155.5 269.4375 C156.29043701 269.42775146 157.08087402 269.41800293 157.89526367 269.40795898 C177.46869036 268.82758298 199.61496035 259.2540843 214.65625 246.80078125 C217 245 217 245 219 245 C220.50145444 242.17752342 221.55260423 239.44463844 222.4375 236.375 C222.69015625 235.50875 222.9428125 234.6425 223.203125 233.75 C223.59757812 232.38875 223.59757812 232.38875 224 231 C224.5606294 229.12443984 225.12304616 227.24941274 225.6875 225.375 C226.06455078 224.11816406 226.06455078 224.11816406 226.44921875 222.8359375 C226.63097656 222.23007813 226.81273437 221.62421875 227 221 C227.66 221 228.32 221 229 221 C229.33 218.03 229.66 215.06 230 212 C230.66 212 231.32 212 232 212 C231.95230469 211.28585938 231.90460937 210.57171875 231.85546875 209.8359375 C232.02194204 206.56946155 232.88831814 204.55738625 234.3125 201.625 C234.993125 200.19607422 234.993125 200.19607422 235.6875 198.73828125 C236.3371875 197.38283203 236.3371875 197.38283203 237 196 C238.02400327 193.67599259 239.01214007 191.33966825 240 189 C240.66 189 241.32 189 242 189 C242.12375 188.0925 242.2475 187.185 242.375 186.25 C242.92109677 183.41029677 243.57263803 181.47409409 245 179 C245.66 179 246.32 179 247 179 C247.33 176.69 247.66 174.38 248 172 C248.66 172 249.32 172 250 172 C250.20625 171.154375 250.4125 170.30875 250.625 169.4375 C254.0118543 160.97036425 261.27853003 155.6328065 269.40234375 151.89453125 C274.43066171 150.16297514 279.3352116 149.84347066 284.625 149.8125 C285.73101563 149.79832031 286.83703125 149.78414062 287.9765625 149.76953125 C290.9000427 149.99238052 292.53458529 150.47865872 295 152 C297.23115537 164.25758198 289.72880554 175.58210006 283.8125 185.83203125 C281.90338241 189.16887255 280.44910901 192.44968293 279 196 C278.34 196 277.68 196 277 196 C276.896875 196.845625 276.79375 197.69125 276.6875 198.5625 C275.9171146 202.41442701 274.63725486 205.44075031 273 209 C272.34 209 271.68 209 271 209 C271 209.99 271 210.98 271 212 C270.34 212 269.68 212 269 212 C268.855625 213.258125 268.71125 214.51625 268.5625 215.8125 C268.26251314 218.42667123 267.84186703 220.47439892 267 223 C267.66 223 268.32 223 269 223 C269.144375 222.38125 269.28875 221.7625 269.4375 221.125 C270 219 270 219 271 217 C271.66 217 272.32 217 273 217 C273.33 215.35 273.66 213.7 274 212 C274.66 212 275.32 212 276 212 C276 211.01 276 210.02 276 209 C276.66 209 277.32 209 278 209 C278.33 207.35 278.66 205.7 279 204 C279.66 204 280.32 204 281 204 C281 203.01 281 202.02 281 201 C281.66 201 282.32 201 283 201 C283.33 200.01 283.66 199.02 284 198 C284.66 198 285.32 198 286 198 C286.309375 197.38125 286.61875 196.7625 286.9375 196.125 C287.625 194.75 288.3125 193.375 289 192 C289.66 192 290.32 192 291 192 C291.268125 191.360625 291.53625 190.72125 291.8125 190.0625 C293 188 293 188 296 187 C296.70394612 185.68596724 297.36345658 184.3479743 298 183 C300.69644523 179.33838422 303.56565839 176.50841104 307.125 173.6875 C307.99382813 172.99011719 308.86265625 172.29273438 309.7578125 171.57421875 C312 170 312 170 314 170 C314 169.34 314 168.68 314 168 C315.9271514 166.46250774 317.83687698 165.06422852 319.875 163.6875 C320.46998291 163.28378174 321.06496582 162.88006348 321.67797852 162.46411133 C333.00216947 154.90197871 346.99271755 147.94526447 361 150 C366.0927136 151.27563154 369.13058796 153.60105063 372 158 C373.23923478 166.07942044 372.09696969 173.51565658 369 181 C368.34 181 367.68 181 367 181 C366.67 183.31 366.34 185.62 366 188 C365.34 188 364.68 188 364 188 C363.67 190.31 363.34 192.62 363 195 C364.03125 195.0825 365.0625 195.165 366.125 195.25 C370.57241695 196.11079038 373.77186157 197.77186157 377 201 C377.15456568 203.57708556 377.23172843 206.10892521 377.25 208.6875 C377.2809375 209.75000977 377.2809375 209.75000977 377.3125 210.83398438 C377.34799315 215.63886994 376.52670979 218.77773496 374 223 C373.34 223 372.68 223 372 223 C371.690625 223.61875 371.38125 224.2375 371.0625 224.875 C370.375 226.25 369.6875 227.625 369 229 C368.34 229 367.68 229 367 229 C366.67 229.99 366.34 230.98 366 232 C365.34 232 364.68 232 364 232 C363.731875 232.639375 363.46375 233.27875 363.1875 233.9375 C362 236 362 236 359 237 C359 237.66 359 238.32 359 239 C357.35 239.66 355.7 240.32 354 241 C354 241.66 354 242.32 354 243 C351.730384 244.14829977 349.45939222 245.29371978 347.1875 246.4375 C346.54490234 246.76298828 345.90230469 247.08847656 345.24023438 247.42382812 C337.99139255 251.06702842 332.08052225 251.74693903 324 251 C321.19931629 249.9605242 319.41879903 248.80003649 317 247 C317 246.34 317 245.68 317 245 C316.34 245 315.68 245 315 245 C314.67 243.02 314.34 241.04 314 239 C313.34 239 312.68 239 312 239 C311.79053611 232.56480384 311.88342771 227.10070838 314 221 C314.34135927 219.66869885 314.67925956 218.33641852 315 217 C315.66 217 316.32 217 317 217 C317 215.68 317 214.36 317 213 C317.66 213 318.32 213 319 213 C319.33 209.04 319.66 205.08 320 201 C315.02362638 202.21374966 312.15693228 204.32973493 308.515625 207.7578125 C307 209 307 209 305 209 C304.690625 209.61875 304.38125 210.2375 304.0625 210.875 C303.375 212.25 302.6875 213.625 302 215 C301.34 215 300.68 215 300 215 C299.690625 215.61875 299.38125 216.2375 299.0625 216.875 C298.375 218.25 297.6875 219.625 297 221 C296.34 221 295.68 221 295 221 C294.7525 221.53625 294.505 222.0725 294.25 222.625 C292.69347463 225.5823982 290.96564327 228.29724051 289 231 C288.34 231 287.68 231 287 231 C286.67 232.32 286.34 233.64 286 235 C285.34 235 284.68 235 284 235 C284 235.99 284 236.98 284 238 C283.34 238 282.68 238 282 238 C281.75378906 238.68835938 281.50757813 239.37671875 281.25390625 240.0859375 C279.79302288 243.48101224 277.91933478 246.51929826 275.9375 249.625 C273.07183463 254.10772343 273.07183463 254.10772343 271 259 C270.34 259 269.68 259 269 259 C268.9175 259.70125 268.835 260.4025 268.75 261.125 C268.00285029 263.98907391 266.88216648 265.7982988 265.18359375 268.1875 C262.20013407 272.75623034 259.72399231 277.82802308 258 283 C257.34 283 256.68 283 256 283 C255.938125 283.66 255.87625 284.32 255.8125 285 C254.69621505 289.1216675 252.66238434 292.65750502 250 296 C249.34 296 248.68 296 248 296 C248 296.66 248 297.32 248 298 C246.60922699 298.82113177 245.21211107 299.63152495 243.8125 300.4375 C243.03519531 300.88996094 242.25789063 301.34242188 241.45703125 301.80859375 C235.30905111 304.78972879 228.6893617 304.80680851 222.25 302.875 C218.24449845 300.56413372 216.96064925 299.21176506 215 295 C214.10187645 290.68900695 213.49326007 286.37443798 213 282 C212.01902344 282.65226562 211.03804687 283.30453125 210.02734375 283.9765625 C186.12678939 299.58051327 157.16757769 308.19230363 128.68115234 302.33764648 C117.66206685 299.89337808 108.47644095 296.77766625 100 289 C98.6953125 286.75 98.6953125 286.75 98 285 C97.34 285 96.68 285 96 285 C95.15415002 283.44424022 94.32381601 281.8800388 93.5 280.3125 C93.0359375 279.44238281 92.571875 278.57226562 92.09375 277.67578125 C90.95181208 274.88211171 90.78495792 272.98370887 91 270 C90.49662109 270.31227539 89.99324219 270.62455078 89.47460938 270.94628906 C87.15191239 272.38440255 84.82599004 273.8172193 82.5 275.25 C81.70851563 275.74113281 80.91703125 276.23226563 80.1015625 276.73828125 C66.6625 285 66.6625 285 63 285 C63 285.66 63 286.32 63 287 C62.09121094 287.43699219 62.09121094 287.43699219 61.1640625 287.8828125 C55.80582539 290.50422696 50.67272423 293.33089047 45.59375 296.45703125 C41.92980473 298.63663724 38.14571417 300.57326213 34.34765625 302.5078125 C31.87716051 304.07807768 30.68855847 305.65113957 29 308 C28.34 308 27.68 308 27 308 C26.814375 309.3303125 26.814375 309.3303125 26.625 310.6875 C26.05587264 313.70387502 25.23385564 316.20326054 24 319 C23.34 319 22.68 319 22 319 C21.87625 319.9075 21.7525 320.815 21.625 321.75 C21.07890323 324.58970323 20.42736197 326.52590591 19 329 C18.34 329 17.68 329 17 329 C16.91621094 329.82242187 16.83242187 330.64484375 16.74609375 331.4921875 C15.82913028 335.80335607 14.09686841 339.24349708 12.0625 343.125 C11.70220703 343.82753906 11.34191406 344.53007812 10.97070312 345.25390625 C10.28336219 346.59314513 9.59295706 347.93081755 8.89892578 349.26660156 C7.91284513 351.16806071 6.94993425 353.0802376 6 355 C5.34 355 4.68 355 4 355 C3.67 356.98 3.34 358.96 3 361 C2.34 361 1.68 361 1 361 C0.87625 361.556875 0.7525 362.11375 0.625 362.6875 C-0.05976855 365.22114364 -0.99133763 367.57921032 -2 370 C-2.66 370 -3.32 370 -4 370 C-4.12375 370.5775 -4.2475 371.155 -4.375 371.75 C-5.00648824 374.02335767 -5.88858191 375.9253529 -7 378 C-7.66 378 -8.32 378 -9 378 C-9.12375 378.763125 -9.2475 379.52625 -9.375 380.3125 C-10 383 -10 383 -12 386 C-12.66 386 -13.32 386 -14 386 C-14.12375 386.763125 -14.2475 387.52625 -14.375 388.3125 C-15 391 -15 391 -17 394 C-17.66 394 -18.32 394 -19 394 C-19.0928125 394.55429687 -19.185625 395.10859375 -19.28125 395.6796875 C-20.19184626 398.61932977 -21.6909941 400.64132387 -23.5 403.125 C-25.94482343 406.44469454 -25.94482343 406.44469454 -28 410 C-28.66 410 -29.32 410 -30 410 C-30 410.66 -30 411.32 -30 412 C-30.66 412 -31.32 412 -32 412 C-32.309375 412.61875 -32.61875 413.2375 -32.9375 413.875 C-33.625 415.25 -34.3125 416.625 -35 418 C-35.66 418 -36.32 418 -37 418 C-37.33 419.32 -37.66 420.64 -38 422 C-38.66 422 -39.32 422 -40 422 C-40.20625 422.556875 -40.4125 423.11375 -40.625 423.6875 C-42.57683032 426.97012371 -44.94230994 428.70673246 -48 431 C-48.66 431 -49.32 431 -50 431 C-50.33 431.99 -50.66 432.98 -51 434 C-52.33333333 434.33333333 -53.66666667 434.66666667 -55 435 C-55.33 435.99 -55.66 436.98 -56 438 C-66.39244742 445.72266351 -80.88260241 451.24293446 -94 450 C-102.41536781 448.35325177 -110.33266072 445.80080714 -116 439 C-116 438.34 -116 437.68 -116 437 C-116.66 437 -117.32 437 -118 437 C-122.28388466 428.07524029 -121.80701709 418.58884876 -120 409 C-119.34 409 -118.68 409 -118 409 C-117.87625 407.96875 -117.7525 406.9375 -117.625 405.875 C-117.06110186 402.37883154 -116.21317941 399.31602373 -115 396 C-114.34 396 -113.68 396 -113 396 C-112.87625 395.236875 -112.7525 394.47375 -112.625 393.6875 C-112 391 -112 391 -110 388 C-109.34 388 -108.68 388 -108 388 C-107.67 386.35 -107.34 384.7 -107 383 C-106.34 383 -105.68 383 -105 383 C-105 382.01 -105 381.02 -105 380 C-104.34 380 -103.68 380 -103 380 C-102.7525 379.278125 -102.505 378.55625 -102.25 377.8125 C-100.87730408 374.72393418 -99.27646704 372.48988582 -97 370 C-96.34 370 -95.68 370 -95 370 C-94.690625 369.38125 -94.38125 368.7625 -94.0625 368.125 C-93.375 366.75 -92.6875 365.375 -92 364 C-91.34 364 -90.68 364 -90 364 C-89.79375 363.46375 -89.5875 362.9275 -89.375 362.375 C-87.46749574 359.08021991 -84.95180616 356.40636372 -82 354 C-81.34 354 -80.68 354 -80 354 C-79.7525 353.401875 -79.505 352.80375 -79.25 352.1875 C-77.81927475 349.68373081 -76.4308418 348.51927612 -74 347 C-73.34 347 -72.68 347 -72 347 C-71.67 346.01 -71.34 345.02 -71 344 C-69.66666667 343.66666667 -68.33333333 343.33333333 -67 343 C-66.67 342.01 -66.34 341.02 -66 340 C-65.34 340 -64.68 340 -64 340 C-64 339.34 -64 338.68 -64 338 C-62.35 337.34 -60.7 336.68 -59 336 C-59 335.34 -59 334.68 -59 334 C-57.56298828 332.76318359 -57.56298828 332.76318359 -55.5703125 331.3984375 C-54.85746094 330.90859375 -54.14460938 330.41875 -53.41015625 329.9140625 C-52.65605469 329.40617187 -51.90195313 328.89828125 -51.125 328.375 C-50.00544922 327.6015625 -50.00544922 327.6015625 -48.86328125 326.8125 C-43.265563 323 -43.265563 323 -41 323 C-41 322.34 -41 321.68 -41 321 C-35.58823529 317 -35.58823529 317 -33 317 C-33 316.34 -33 315.68 -33 315 C-30.875 313.44921875 -30.875 313.44921875 -28 311.6875 C-26.99324219 311.06488281 -25.98648438 310.44226563 -24.94921875 309.80078125 C-23.97597656 309.20652344 -23.00273438 308.61226563 -22 308 C-19.97056345 306.73115788 -17.94407502 305.45774306 -15.91796875 304.18359375 C-14.55732613 303.34393038 -13.18336251 302.52568302 -11.80078125 301.72265625 C-11.08277344 301.29855469 -10.36476563 300.87445313 -9.625 300.4375 C-8.97789062 300.06496094 -8.33078125 299.69242187 -7.6640625 299.30859375 C-5.69504189 297.76018552 -4.95813141 296.28886948 -4 294 C-3.34 294 -2.68 294 -2 294 C-1.67 292.68 -1.34 291.36 -1 290 C-1.99 289.67 -2.98 289.34 -4 289 C-4.33 289.99 -4.66 290.98 -5 292 C-5.66 292 -6.32 292 -7 292 C-7 292.66 -7 293.32 -7 294 C-7.66 294 -8.32 294 -9 294 C-9 294.66 -9 295.32 -9 296 C-11.3937297 296.98459071 -13.7897507 297.96278703 -16.1875 298.9375 C-16.86103516 299.21529297 -17.53457031 299.49308594 -18.22851562 299.77929688 C-28.65095358 303.99911322 -41.01809351 304.87089455 -51.76953125 301.125 C-55.73576004 299.12452033 -59.10055188 296.36109209 -62 293 C-62 292.34 -62 291.68 -62 291 C-62.66 291 -63.32 291 -64 291 C-64 289.68 -64 288.36 -64 287 C-64.66 287 -65.32 287 -66 287 C-66 286.01 -66 285.02 -66 284 C-66.95519531 284.73605469 -67.91039062 285.47210938 -68.89453125 286.23046875 C-76.23828395 291.80912563 -83.23209454 296.88524757 -92 300 C-93.07636719 300.38929688 -94.15273437 300.77859375 -95.26171875 301.1796875 C-104.66237769 304.23253307 -116.10461258 306.69179963 -125.5 302.375 C-127.29296875 301.26953125 -127.29296875 301.26953125 -129 300 C-129.63550781 299.52949219 -130.27101563 299.05898438 -130.92578125 298.57421875 C-134.39405175 295.79529394 -137.15572063 293.12250682 -139 289 C-139 287.68 -139 286.36 -139 285 C-139.66 285 -140.32 285 -141 285 C-141 282.36 -141 279.72 -141 277 C-145.26866909 277.47429657 -147.10933148 280.03521178 -150 283 C-150.99 283.33 -151.98 283.66 -153 284 C-153.33 284.99 -153.66 285.98 -154 287 C-168.0442865 299.27027137 -183.81245274 304.47126776 -202.38671875 304.3515625 C-210.27847322 303.58371612 -217.10949139 300.24525855 -223 295 C-223.8125 292.75 -223.8125 292.75 -224 291 C-224.66 291 -225.32 291 -226 291 C-229 285.375 -229 285.375 -229 282 C-229.83660156 282.49628906 -230.67320312 282.99257813 -231.53515625 283.50390625 C-243.39178365 290.46195614 -255.19210174 296.35984213 -268.375 300.375 C-269.19500488 300.62588379 -270.01500977 300.87676758 -270.85986328 301.13525391 C-291.48944168 307.12421709 -315.50023807 305.24988097 -334.734375 295.6328125 C-336.9375 294.3125 -336.9375 294.3125 -340 292 C-340 291.34 -340 290.68 -340 290 C-340.88945313 289.64228516 -340.88945313 289.64228516 -341.796875 289.27734375 C-344.46586398 287.72989801 -345.57526129 286.13804513 -347.25 283.5625 C-347.77078125 282.78003906 -348.2915625 281.99757813 -348.828125 281.19140625 C-350 279 -350 279 -350 276 C-350.66 276 -351.32 276 -352 276 C-353.91302307 272.73386305 -354.35674661 270.00554752 -354.625 266.25 C-354.73714844 264.77273438 -354.73714844 264.77273438 -354.8515625 263.265625 C-354.90054687 262.51796875 -354.94953125 261.7703125 -355 261 C-355.721875 261.721875 -356.44375 262.44375 -357.1875 263.1875 C-358.115625 264.115625 -359.04375 265.04375 -360 266 C-361.175625 267.2065625 -361.175625 267.2065625 -362.375 268.4375 C-377.29268293 283 -377.29268293 283 -382 283 C-382 283.66 -382 284.32 -382 285 C-383.40527344 286.12915039 -383.40527344 286.12915039 -385.359375 287.34765625 C-386.06320312 287.78787109 -386.76703125 288.22808594 -387.4921875 288.68164062 C-388.23726562 289.13732422 -388.98234375 289.59300781 -389.75 290.0625 C-390.47960938 290.52205078 -391.20921875 290.98160156 -391.9609375 291.45507812 C-395.32559425 293.53810653 -398.11738449 295.13578444 -402 296 C-405.15479076 297.21208159 -408.28561836 298.47724565 -411.41796875 299.74609375 C-419.61658312 302.61605581 -427.46831696 303.40606223 -436.125 303.6875 C-437.23085449 303.72512451 -438.33670898 303.76274902 -439.47607422 303.80151367 C-462.87475151 304.48124987 -483.0485046 298.91969308 -504.125 288.83203125 C-508.84006038 286.58177109 -513.62625065 284.50107745 -518.42114258 282.42773438 C-521.99645213 280.88136765 -525.53773186 279.28265836 -529.0625 277.625 C-532.72061003 275.97885049 -536.00970894 275.33959924 -540 275 C-540.26039063 275.5878125 -540.52078125 276.175625 -540.7890625 276.78125 C-542.07469483 279.13686021 -543.44554744 280.64637745 -545.375 282.5 C-546.25285156 283.35078125 -546.25285156 283.35078125 -547.1484375 284.21875 C-547.75945312 284.8065625 -548.37046875 285.394375 -549 286 C-549.60972656 286.6496875 -550.21945312 287.299375 -550.84765625 287.96875 C-563.48129615 299.89160435 -581.24111704 304.60387138 -598.25 304.18359375 C-608.37441963 303.50767369 -618.05323665 301.82611059 -625.5625 294.5 C-629.34592464 287.92013107 -628.75205604 279.34532403 -628 272 C-625.44244561 263.86490079 -620.68183702 257.27513449 -614 252 C-613.36320313 251.70351563 -612.72640625 251.40703125 -612.0703125 251.1015625 C-609.77689119 250.0214058 -609.77689119 250.0214058 -607.6953125 247.57421875 C-604.67952608 244.69392419 -601.7139082 243.25006739 -597.875 241.8125 C-597.21411377 241.55766846 -596.55322754 241.30283691 -595.87231445 241.0402832 C-590.33430446 238.97752364 -584.874711 237.69273009 -579 237 C-578.14792969 236.89042969 -577.29585937 236.78085938 -576.41796875 236.66796875 C-570.92260275 236.03486207 -565.52881115 235.91082563 -560 236 C-559.80664062 235.20335937 -559.61328125 234.40671875 -559.4140625 233.5859375 C-556.82776801 223.06151142 -556.82776801 223.06151142 -555 218 C-554.34 218 -553.68 218 -553 218 C-552.88479004 216.84701416 -552.76958008 215.69402832 -552.65087891 214.50610352 C-552.09773958 210.11571815 -550.96128997 206.0975172 -549.5859375 201.90234375 C-549.33959061 201.13100098 -549.09324371 200.3596582 -548.83943176 199.56494141 C-548.02491354 197.02016547 -547.20033033 194.47878808 -546.375 191.9375 C-545.49572822 189.20988218 -544.6181589 186.48171991 -543.74058533 183.7535553 C-543.12372448 181.83686475 -542.50591895 179.92047801 -541.88722229 178.00437927 C-539.91032097 171.87205997 -537.97258289 165.72878833 -536.0645752 159.57469177 C-534.76369397 155.37969731 -533.45246551 151.18796582 -532.14068604 146.99636841 C-531.5137069 144.98433025 -530.89114256 142.97091013 -530.27337646 140.95602417 C-523.08401476 117.5372778 -512.38534072 97.07888538 -497 78 C-495.92685547 76.58074219 -495.92685547 76.58074219 -494.83203125 75.1328125 C-494.22746094 74.42898437 -493.62289062 73.72515625 -493 73 C-492.34 73 -491.68 73 -491 73 C-491 72.34 -491 71.68 -491 71 C-490.34 71 -489.68 71 -489 71 C-488.67 70.01 -488.34 69.02 -488 68 C-487.34 68 -486.68 68 -486 68 C-486 67.34 -486 66.68 -486 66 C-484.1015625 64.2734375 -484.1015625 64.2734375 -481.625 62.375 C-480.40683594 61.42753906 -480.40683594 61.42753906 -479.1640625 60.4609375 C-477 59 -477 59 -475 59 C-474.78730469 58.42378906 -474.57460938 57.84757812 -474.35546875 57.25390625 C-466.89711124 44.85196883 -441.14491054 36.08906389 -427.875 32.5 C-425.5888187 31.97548958 -423.29607533 31.47934767 -421 31 C-420.12287354 30.75572266 -419.24574707 30.51144531 -418.34204102 30.25976562 C-409.39090213 27.88239509 -400.86229438 27.47354271 -391.6628418 27.49902344 C-389.20046516 27.49999489 -386.74122618 27.45824028 -384.27929688 27.4140625 C-368.02098021 27.2922347 -352.84119987 31.01669043 -340.3125 42 C-330.15793609 52.73344641 -328.61866987 65.57202302 -328.78515625 79.58203125 C-329.30916026 98.319243 -337.41908198 116.23811458 -350 130 C-356.75561162 136.18035211 -364.28302315 138.61168798 -373.37890625 138.359375 C-378.56988757 137.64764582 -382.5967345 134.96403083 -386 131 C-388.52772913 121.3630327 -384.31766674 113.01995724 -380.328125 104.328125 C-376.25008597 95.25475794 -374.305912 87.02152056 -376 77 C-379.36368469 71.11526445 -382.64513329 68.20705892 -389 66 C-410.53355769 63.64476713 -428.13479197 67.80079873 -445.125 81.38671875 C-447.0135114 82.95760078 -447.0135114 82.95760078 -448.625 84.70703125 C-450 86 -450 86 -452 86 C-452.41185547 86.87217163 -452.41185547 86.87217163 -452.83203125 87.76196289 C-453.97107231 89.94456937 -455.23274525 91.82549399 -456.6875 93.80859375 C-468.997497 110.92894149 -476.79750444 128.59608174 -483.453125 148.53125 C-486.43594074 157.40694562 -489.73048097 166.16432132 -493 174.9375 C-497.59122549 187.27085783 -501.94054381 199.63667632 -506.00195312 212.15625 C-508.47387512 219.68030971 -511.3431112 226.88209279 -514.6875 234.05859375 C-515.74792814 236.43508896 -516.42243319 238.49035078 -517 241 C-515.77152344 241.11085937 -514.54304687 241.22171875 -513.27734375 241.3359375 C-507.27726249 242.00742252 -501.44695522 243.29784938 -495.5625 244.625 C-494.39323975 244.88643799 -493.22397949 245.14787598 -492.01928711 245.41723633 C-481.57136484 247.79351395 -471.23558089 250.53009306 -460.91015625 253.38671875 C-439.13204264 259.38978809 -412.80590163 263.80680923 -392 252 C-390.92492188 251.4328125 -389.84984375 250.865625 -388.7421875 250.28125 C-381.52395959 246.39504287 -375.29227032 242.10210655 -369.109375 236.6875 C-367 235 -367 235 -365 235 C-365 234.34 -365 233.68 -365 233 C-360.5936101 229.47488808 -355.41407912 228.89358587 -350 228 C-349.85111328 226.47632813 -349.85111328 226.47632813 -349.69921875 224.921875 C-348.96744337 220.81739189 -347.73519615 217.93410653 -345.8125 214.25 C-345.50368896 213.6523584 -345.19487793 213.0547168 -344.87670898 212.43896484 C-342.00509799 206.91307777 -339.0308432 201.43997498 -336 196 C-335.34 196 -334.68 196 -334 196 C-334 195.01 -334 194.02 -334 193 C-333.34 193 -332.68 193 -332 193 C-331.62875 192.195625 -331.62875 192.195625 -331.25 191.375 C-328.53088694 186.20868518 -325.36028854 181.9013108 -321 178 C-320.34 178 -319.68 178 -319 178 C-318.67 177.01 -318.34 176.02 -318 175 C-314.5546119 172.0429873 -310.74044081 169.56793076 -307 167 C-305.92878906 166.236875 -304.85757812 165.47375 -303.75390625 164.6875 C-295.05543826 158.64905175 -286.1394821 154.96496521 -276 152 C-275.10796875 151.73316406 -274.2159375 151.46632812 -273.296875 151.19140625 C-260.76764352 148.10171481 -247.36999234 148.76229587 -236 155 C-229.60535443 159.12987526 -226.37483526 163.80210447 -224 171 C-223.43407528 174.21102945 -223.33191237 177.3064903 -223.375 180.5625 C-223.38192871 181.4272998 -223.38885742 182.29209961 -223.39599609 183.18310547 C-223.79385963 195.14319097 -228.5027123 207.60580819 -236 217 C-236.66 217 -237.32 217 -238 217 C-238.25394531 217.57492188 -238.50789063 218.14984375 -238.76953125 218.7421875 C-249.08558121 237.67132045 -277.64330729 247.69036415 -296.98632812 253.4453125 C-301.26925183 254.62508974 -305.59620324 255.43740041 -310 256 C-308.20143337 261.73293112 -306.21526264 264.04044447 -301.03515625 267.0546875 C-290.05104012 272.15671457 -275.32064713 269.37994209 -264.3125 265.62109375 C-253.93144633 261.81422946 -243.44589815 257.68186053 -234.53125 251.03125 C-233 250 -233 250 -231 250 C-231 249.34 -231 248.68 -231 248 C-230.34 248 -229.68 248 -229 248 C-228.87625 246.783125 -228.7525 245.56625 -228.625 244.3125 C-228.21108694 240.93520941 -227.45426549 238.10243305 -226 235 C-225.34 235 -224.68 235 -224 235 C-223.95875 233.88625 -223.9175 232.7725 -223.875 231.625 C-223.28966494 226.82355588 -221.14631018 223.49250935 -218.56640625 219.4765625 C-216.43188596 216.10178479 -214.73113794 212.59544034 -213 209 C-212.34 209 -211.68 209 -211 209 C-210.61328125 207.90558594 -210.61328125 207.90558594 -210.21875 206.7890625 C-208.95384439 203.89437467 -207.48441765 201.82188786 -205.5 199.375 C-203.54847024 196.95212619 -201.72828558 194.59242838 -200 192 C-199.34 192 -198.68 192 -198 192 C-197.731875 191.360625 -197.46375 190.72125 -197.1875 190.0625 C-196 188 -196 188 -193 187 C-192.67 186.34 -192.34 185.68 -192 185 C-191 183 -191 183 -188 182 C-187.67 181.01 -187.34 180.02 -187 179 C-186.34 179 -185.68 179 -185 179 C-185 178.34 -185 177.68 -185 177 C-180.87878106 173.71275454 -176.40762563 170.88752071 -172 168 C-171.41202637 167.60796387 -170.82405273 167.21592773 -170.21826172 166.81201172 C-155.83608898 157.29999271 -137.53701443 149 -120 149 C-119.62875 147.081875 -119.62875 147.081875 -119.25 145.125 C-118.2757288 140.73391854 -116.80406594 136.74721307 -115.0703125 132.60546875 C-113.96219006 129.90795902 -112.97372341 127.18616019 -112 124.4375 C-110.47364191 120.17817662 -108.75342123 116.06804923 -106.83203125 111.97265625 C-105.99985566 109.99965778 -105.46237338 108.08768589 -105 106 C-104.34 106 -103.68 106 -103 106 C-102.92265625 105.01515625 -102.8453125 104.0303125 -102.765625 103.015625 C-102.0999417 98.38377267 -100.03018924 94.77928134 -97.75 90.75 C-96.92980852 89.25526612 -96.11209721 87.75916864 -95.296875 86.26171875 C-94.90177734 85.53774902 -94.50667969 84.8137793 -94.09960938 84.06787109 C-91.83859415 79.8159175 -89.92580024 75.41042643 -88 71 C-87.67 70.34 -87.34 69.68 -87 69 C-86.34 69 -85.68 69 -85 69 C-84.67 67.02 -84.34 65.04 -84 63 C-83.34 63 -82.68 63 -82 63 C-81.87625 62.443125 -81.7525 61.88625 -81.625 61.3125 C-80.94023145 58.77885636 -80.00866237 56.42078968 -79 54 C-78.34 54 -77.68 54 -77 54 C-76.87625 53.236875 -76.7525 52.47375 -76.625 51.6875 C-76 49 -76 49 -74 46 C-73.34 46 -72.68 46 -72 46 C-71.67 44.35 -71.34 42.7 -71 41 C-70.34 41 -69.68 41 -69 41 C-69 40.01 -69 39.02 -69 38 C-68.34 38 -67.68 38 -67 38 C-66.67 36.35 -66.34 34.7 -66 33 C-65.34 33 -64.68 33 -64 33 C-63.731875 32.195625 -63.46375 31.39125 -63.1875 30.5625 C-62.795625 29.716875 -62.40375 28.87125 -62 28 C-61.01 27.67 -60.02 27.34 -59 27 C-59 26.01 -59 25.02 -59 24 C-57.625 22.3125 -57.625 22.3125 -56 21 C-55.34 21 -54.68 21 -54 21 C-53.67 20.01 -53.34 19.02 -53 18 C-52.34 18 -51.68 18 -51 18 C-51 17.34 -51 16.68 -51 16 C-50.34 16 -49.68 16 -49 16 C-48.67 15.01 -48.34 14.02 -48 13 C-47.34 13 -46.68 13 -46 13 C-46 12.34 -46 11.68 -46 11 C-34.50278471 -1.10401276 -15.41259922 -7.56618507 0 0 Z M-30 33 C-30 33.66 -30 34.32 -30 35 C-30.66 35 -31.32 35 -32 35 C-32.33 36.32 -32.66 37.64 -33 39 C-33.66 39 -34.32 39 -35 39 C-35 39.99 -35 40.98 -35 42 C-35.66 42 -36.32 42 -37 42 C-38.00732399 43.93370231 -39.00563288 45.87210306 -40 47.8125 C-40.556875 48.89144531 -41.11375 49.97039063 -41.6875 51.08203125 C-43.20510619 53.92273466 -43.20510619 53.92273466 -43 57 C-43.66 57 -44.32 57 -45 57 C-47.29045014 61.81209901 -47.29045014 61.81209901 -48 67 C-48.66 67 -49.32 67 -50 67 C-50.24234375 67.70125 -50.4846875 68.4025 -50.734375 69.125 C-52.29123859 73.53212155 -53.82449933 77.85618921 -56 82 C-58.09164219 85.99388371 -59.58182457 90.13653215 -61.0703125 94.38671875 C-61.69418657 96.14038157 -62.37805152 97.87374844 -63.1171875 99.58203125 C-64.22864082 102.19721832 -64.22864082 102.19721832 -64 106 C-64.66 106 -65.32 106 -66 106 C-66.24234375 106.89460938 -66.4846875 107.78921875 -66.734375 108.7109375 C-68.75668883 116.00682353 -71.06347555 123.01650069 -74 130 C-76.84073263 137.26629505 -79.41312178 144.64063027 -82 152 C-82.38027344 153.04929687 -82.76054688 154.09859375 -83.15234375 155.1796875 C-84.19188974 158.14762975 -84.19188974 158.14762975 -84 162 C-84.66 162 -85.32 162 -86 162 C-86.67220351 163.93558599 -87.33758077 165.87354372 -88 167.8125 C-88.556875 169.43091797 -88.556875 169.43091797 -89.125 171.08203125 C-90.14361512 173.97120802 -90.14361512 173.97120802 -90 177 C-89.01 177 -88.02 177 -87 177 C-87 176.34 -87 175.68 -87 175 C-86.34 175 -85.68 175 -85 175 C-82.7986134 171.19572508 -82.7986134 171.19572508 -82 167 C-81.34 166.67 -80.68 166.34 -80 166 C-79.08615184 164.13845745 -78.1758128 162.27509307 -77.28515625 160.40234375 C-75.32084944 156.73046323 -72.85730942 153.44920564 -70.390625 150.1015625 C-68.81605494 148.1420157 -68.81605494 148.1420157 -69 146 C-68.34 146 -67.68 146 -67 146 C-66.484375 144.906875 -65.96875 143.81375 -65.4375 142.6875 C-63.1260403 138.01451289 -60.29343086 133.74168588 -57.390625 129.41796875 C-55.75072497 127.03145934 -55.75072497 127.03145934 -56 124 C-55.34 124 -54.68 124 -54 124 C-53.73445313 123.38511719 -53.46890625 122.77023438 -53.1953125 122.13671875 C-52.84210937 121.32847656 -52.48890625 120.52023438 -52.125 119.6875 C-51.60292969 118.48673828 -51.60292969 118.48673828 -51.0703125 117.26171875 C-50 115 -50 115 -48 112 C-48 111.01 -48 110.02 -48 109 C-47.34 109 -46.68 109 -46 109 C-42.6653633 101.79214267 -39.34398357 94.57916359 -36.078125 87.33984375 C-35 85 -35 85 -33.859375 82.94140625 C-32.73015178 80.74423951 -32.73015178 80.74423951 -33 77 C-32.34 77 -31.68 77 -31 77 C-30.87882812 76.40832031 -30.75765625 75.81664062 -30.6328125 75.20703125 C-29.72933794 70.94680121 -28.73392734 67.00970697 -27 63 C-25.39351491 58.80528893 -24.78594737 55.49510531 -25 51 C-24.34 51 -23.68 51 -23 51 C-23 44.07 -23 37.14 -23 30 C-26.52032428 30 -27.4385343 30.70351351 -30 33 Z M16 189 C16 189.66 16 190.32 16 191 C15.278125 191.2475 14.55625 191.495 13.8125 191.75 C10.72393418 193.12269592 8.48988582 194.72353296 6 197 C6 197.66 6 198.32 6 199 C5.01 199.33 4.02 199.66 3 200 C-0.64013067 203.47935472 -0.64013067 203.47935472 -2 208 C-2.66 208 -3.32 208 -4 208 C-6.39820305 210.63684747 -6.39820305 210.63684747 -7 214 C-7.66 214 -8.32 214 -9 214 C-11.35910353 218.2637281 -11.35910353 218.2637281 -12 223 C-12.66 223 -13.32 223 -14 223 C-18.83921259 232.31996499 -22.90709359 241.69801407 -25.421875 251.91796875 C-26 254 -26 254 -27 255 C-27.41345068 259.21719696 -27.24797447 261.53061975 -25.25 265.3125 C-22.63972617 268.51301079 -22.63972617 268.51301079 -19 270 C-10.49111804 270.67530809 -6.71231266 267.72908076 -0.35546875 262.40234375 C1.23166253 261.08538435 1.23166253 261.08538435 1 259 C1.66 259 2.32 259 3 259 C3 258.34 3 257.68 3 257 C3.66 257 4.32 257 5 257 C5.33 255.35 5.66 253.7 6 252 C6.66 252 7.32 252 8 252 C9.15341698 249.77447742 10.29781159 247.54504031 11.4375 245.3125 C11.76298828 244.68666016 12.08847656 244.06082031 12.42382812 243.41601562 C14.17752313 239.96286361 15.47760497 236.84806481 16 233 C16.66 233 17.32 233 18 233 C18.26554687 232.25234375 18.53109375 231.5046875 18.8046875 230.734375 C19.15789063 229.74953125 19.51109375 228.7646875 19.875 227.75 C20.39707031 226.28820312 20.39707031 226.28820312 20.9296875 224.796875 C22 222 22 222 23.1328125 219.828125 C24.2142921 217.88547861 24.2142921 217.88547861 24 215 C24.66 215 25.32 215 26 215 C26.24234375 214.29875 26.4846875 213.5975 26.734375 212.875 C28.3568193 208.28223459 29.99203995 203.82238066 32.25 199.5 C34.2236068 196.2049729 34.2236068 196.2049729 34 193 C34.66 193 35.32 193 36 193 C36.50833591 191.75336669 37.00631145 190.50250613 37.5 189.25 C37.7784375 188.55390625 38.056875 187.8578125 38.34375 187.140625 C39.19540327 184.73577305 39.19540327 184.73577305 39 181 C30.75876248 181 23.09555667 185.18047694 16 189 Z M-293.73046875 196.0625 C-295.18268898 197.89274817 -295.18268898 197.89274817 -295 200 C-295.66 200 -296.32 200 -297 200 C-302.89373066 209.67029594 -307.31850376 218.90953983 -310 230 C-298.17950166 228.24784649 -287.92896547 223.54104144 -278 217 C-277.278125 216.53851563 -276.55625 216.07703125 -275.8125 215.6015625 C-269.08968545 210.9923601 -264.62880335 204.71835871 -262 197 C-261.65318168 194.66770306 -261.65318168 194.66770306 -261.6875 192.375 C-261.67074219 191.61960938 -261.65398437 190.86421875 -261.63671875 190.0859375 C-262.09531031 187.45273436 -262.90692856 186.61759619 -265 185 C-275.93180998 181.35606334 -286.69667712 187.67910953 -293.73046875 196.0625 Z M153 192 C153 192.66 153 193.32 153 194 C152.34 194 151.68 194 151 194 C148.15195093 197.11505367 146.36687222 200.01328937 145 204 C144.34 204 143.68 204 143 204 C142.67 205.65 142.34 207.3 142 209 C141.34 209 140.68 209 140 209 C140 209.99 140 210.98 140 212 C139.34 212 138.68 212 138 212 C137.16320723 214.62394306 136.33043058 217.24904384 135.5 219.875 C135.14228516 220.99455078 135.14228516 220.99455078 134.77734375 222.13671875 C133.47229585 225.99242067 133.47229585 225.99242067 133 230 C146.99186553 228.78331604 160.42420083 220.80605858 171 212 C171.68707031 211.52691406 172.37414063 211.05382812 173.08203125 210.56640625 C175.27610802 208.77450241 176.3437545 207.10902164 177.6875 204.625 C178.10386719 203.87476563 178.52023437 203.12453125 178.94921875 202.3515625 C181.01087161 197.73775201 181.54651607 193.00973062 181 188 C178.90966781 185.37022724 177.32203994 184.27585873 174.015625 183.5859375 C166.11647837 183.05372549 158.90404183 186.96062334 153 192 Z M-139.671875 186.75 C-140.33574219 187.1109375 -140.99960938 187.471875 -141.68359375 187.84375 C-142.36550781 188.2253125 -143.04742188 188.606875 -143.75 189 C-144.44738281 189.3815625 -145.14476562 189.763125 -145.86328125 190.15625 C-147.57962615 191.09671296 -149.29037616 192.04737378 -151 193 C-151 193.66 -151 194.32 -151 195 C-152.65 195.66 -154.3 196.32 -156 197 C-156 197.66 -156 198.32 -156 199 C-156.58265625 199.2578125 -157.1653125 199.515625 -157.765625 199.78125 C-160.1802903 201.09834017 -161.81740177 202.55088384 -163.75 204.5 C-164.36359375 205.1084375 -164.9771875 205.716875 -165.609375 206.34375 C-167.21434088 207.89484277 -167.21434088 207.89484277 -167 210 C-167.66 210 -168.32 210 -169 210 C-169 210.66 -169 211.32 -169 212 C-169.66 212 -170.32 212 -171 212 C-173.31592022 215.22114157 -173.31592022 215.22114157 -174 219 C-174.66 219 -175.32 219 -176 219 C-184.40839419 233.70191973 -184.40839419 233.70191973 -187 250 C-187.66 250 -188.32 250 -189 250 C-189.97767513 258.90558479 -189.97767513 258.90558479 -186.625 266.75 C-182.7408925 270.079235 -180.41303804 270.34904775 -175.43359375 270.27734375 C-167.47597942 269.37045672 -159.17775515 262.87874354 -154 257 C-154 256.34 -154 255.68 -154 255 C-153.34 255 -152.68 255 -152 255 C-147.68745301 251.17250431 -144.42045735 247.19950233 -143.32421875 241.46484375 C-143.19223204 239.04508732 -143.10698608 236.62229463 -143.0703125 234.19921875 C-143.012075 231.54941249 -142.8076794 229.61060491 -142 227.125 C-141.16056693 224.50177167 -140.73789332 222.33330802 -140.4375 219.625 C-140 216 -140 216 -139 215 C-138.67618492 212.94230238 -138.39112253 210.87845123 -138.125 208.8125 C-137.40894079 203.89092883 -136.29979892 200.40794793 -134 196 C-133.1707291 192.35731312 -132.5585545 188.69303094 -132 185 C-135.74417579 185 -136.63774407 185.07599673 -139.671875 186.75 Z M-30 342 C-30 342.66 -30 343.32 -30 344 C-30.71414063 344.24234375 -31.42828125 344.4846875 -32.1640625 344.734375 C-35.39565032 346.17657122 -37.67083541 347.97199315 -40.375 350.25 C-41.32761719 351.05050781 -42.28023437 351.85101563 -43.26171875 352.67578125 C-44.16535156 353.44277344 -45.06898438 354.20976562 -46 355 C-46.74894531 355.61230469 -47.49789062 356.22460938 -48.26953125 356.85546875 C-49.88676839 358.18944236 -51.45034023 359.58808777 -53 361 C-53 361.66 -53 362.32 -53 363 C-53.99 363.33 -54.98 363.66 -56 364 C-56 364.66 -56 365.32 -56 366 C-56.598125 366.268125 -57.19625 366.53625 -57.8125 366.8125 C-59.99847854 367.99917406 -61.41332594 369.09599113 -63 371 C-63 371.66 -63 372.32 -63 373 C-64.485 373.495 -64.485 373.495 -66 374 C-66 374.66 -66 375.32 -66 376 C-66.66 376 -67.32 376 -68 376 C-70.39820305 378.63684747 -70.39820305 378.63684747 -71 382 C-71.66 382 -72.32 382 -73 382 C-73.33 383.32 -73.66 384.64 -74 386 C-74.66 386 -75.32 386 -76 386 C-76.96189997 387.72718516 -77.91936508 389.45684058 -78.875 391.1875 C-79.40867187 392.15042969 -79.94234375 393.11335938 -80.4921875 394.10546875 C-83.2068168 399.31671308 -84.24499914 402.87254241 -84.125 408.8125 C-84.10695313 409.97394531 -84.08890625 411.13539063 -84.0703125 412.33203125 C-84.04710937 413.21246094 -84.02390625 414.09289062 -84 415 C-79.87107816 416.97554942 -79.87107816 416.97554942 -75.375 415.75 C-71.99373054 414.07485356 -71.99373054 414.07485356 -69 412 C-69 411.34 -69 410.68 -69 410 C-68.34 410 -67.68 410 -67 410 C-65.11230708 407.76371903 -63.32462833 405.51939081 -61.5625 403.1875 C-60.58645486 401.90876544 -59.60864438 400.63137603 -58.62890625 399.35546875 C-58.19650635 398.78465576 -57.76410645 398.21384277 -57.31860352 397.62573242 C-55.9732635 395.96703604 -54.5136176 394.50426465 -53 393 C-52.06624374 391.67169884 -51.17049112 390.31595419 -50.3125 388.9375 C-49.87550781 388.24527344 -49.43851563 387.55304688 -48.98828125 386.83984375 C-47.84226424 385.05442868 -47.84226424 385.05442868 -48 383 C-47.34 383 -46.68 383 -46 383 C-45.59007812 382.24074219 -45.18015625 381.48148437 -44.7578125 380.69921875 C-44.21898437 379.70535156 -43.68015625 378.71148437 -43.125 377.6875 C-42.59132813 376.70136719 -42.05765625 375.71523438 -41.5078125 374.69921875 C-40 372 -40 372 -38 369 C-38 368.01 -38 367.02 -38 366 C-37.34 366 -36.68 366 -36 366 C-34.99267601 364.06629769 -33.99436712 362.12789694 -33 360.1875 C-32.443125 359.10855469 -31.88625 358.02960938 -31.3125 356.91796875 C-29.79489381 354.07726534 -29.79489381 354.07726534 -30 351 C-29.34 351 -28.68 351 -28 351 C-26.76078698 348.02588876 -25.69941596 345.14737182 -25 342 C-24.34 342 -23.68 342 -23 342 C-23 341.01 -23 340.02 -23 339 C-26.52032428 339 -27.4385343 339.70351351 -30 342 Z " fill="#4C4C4C" transform="translate(1433,6)"/>
<path d="M0 0 C3.0625 2.1875 3.0625 2.1875 4.0625 5.1875 C4.7225 5.1875 5.3825 5.1875 6.0625 5.1875 C6.0625 6.8375 6.0625 8.4875 6.0625 10.1875 C6.7225 10.1875 7.3825 10.1875 8.0625 10.1875 C9.65495395 13.70577628 10.30511382 16.41447352 10.2578125 20.26953125 C10.25136719 21.20087891 10.24492188 22.13222656 10.23828125 23.09179688 C10.22152344 24.05150391 10.20476563 25.01121094 10.1875 26 C10.17847656 26.97904297 10.16945313 27.95808594 10.16015625 28.96679688 C10.13667182 31.37395061 10.1038284 33.78059743 10.0625 36.1875 C9.4025 36.1875 8.7425 36.1875 8.0625 36.1875 C8.0625 38.1675 8.0625 40.1475 8.0625 42.1875 C7.4025 42.1875 6.7425 42.1875 6.0625 42.1875 C6.2171875 43.79625 6.2171875 43.79625 6.375 45.4375 C6.40774163 51.56018574 3.54969254 56.72321336 1.0625 62.1875 C0.38645659 63.8503853 -0.28349838 65.51582297 -0.9375 67.1875 C-1.5975 67.1875 -2.2575 67.1875 -2.9375 67.1875 C-2.9375 68.1775 -2.9375 69.1675 -2.9375 70.1875 C-3.5975 70.1875 -4.2575 70.1875 -4.9375 70.1875 C-4.9375 71.5075 -4.9375 72.8275 -4.9375 74.1875 C-5.5975 74.1875 -6.2575 74.1875 -6.9375 74.1875 C-7.0921875 75.5796875 -7.0921875 75.5796875 -7.25 77 C-7.96994329 80.3379189 -8.48203438 81.03896758 -10.9375 83.1875 C-11.2675 84.1775 -11.5975 85.1675 -11.9375 86.1875 C-12.5975 86.1875 -13.2575 86.1875 -13.9375 86.1875 C-13.9375 86.8475 -13.9375 87.5075 -13.9375 88.1875 C-14.5975 88.1875 -15.2575 88.1875 -15.9375 88.1875 C-15.9375 88.8475 -15.9375 89.5075 -15.9375 90.1875 C-16.5975 90.1875 -17.2575 90.1875 -17.9375 90.1875 C-18.02128906 90.75210938 -18.10507812 91.31671875 -18.19140625 91.8984375 C-20.87278894 100.12508806 -31.57931872 108.53845425 -37.9375 114.1875 C-38.5975 114.1875 -39.2575 114.1875 -39.9375 114.1875 C-39.9375 114.8475 -39.9375 115.5075 -39.9375 116.1875 C-44.40808824 120.1875 -44.40808824 120.1875 -46.9375 120.1875 C-46.9375 120.8475 -46.9375 121.5075 -46.9375 122.1875 C-48.90472008 123.56873963 -50.90618328 124.90238126 -52.9375 126.1875 C-53.2675 126.5175 -53.5975 126.8475 -53.9375 127.1875 C-52.59171875 127.17964478 -52.59171875 127.17964478 -51.21875 127.17163086 C-47.8566014 127.15448147 -44.4945 127.14199784 -41.13232422 127.13256836 C-39.68342348 127.12757215 -38.23452769 127.12077291 -36.78564453 127.11206055 C-16.7269161 126.99455594 -16.7269161 126.99455594 -11.9375 130.1875 C-11.53185713 135.13634301 -11.68197161 138.67644322 -13.9375 143.1875 C-14.5975 143.1875 -15.2575 143.1875 -15.9375 143.1875 C-15.9375 144.5075 -15.9375 145.8275 -15.9375 147.1875 C-16.5975 147.1875 -17.2575 147.1875 -17.9375 147.1875 C-18.164375 147.765 -18.39125 148.3425 -18.625 148.9375 C-22.45315381 155.50004939 -30.12260184 158.18128291 -37.11791992 160.02636719 C-49.24327445 162.56855937 -61.08946539 162.53129179 -73.4375 162.375 C-75.53254237 162.35991258 -77.62759535 162.34623142 -79.72265625 162.33398438 C-84.79453889 162.30133112 -89.86589817 162.24977723 -94.9375 162.1875 C-94.9375 163.1775 -94.9375 164.1675 -94.9375 165.1875 C-95.5975 165.1875 -96.2575 165.1875 -96.9375 165.1875 C-96.9375 167.4975 -96.9375 169.8075 -96.9375 172.1875 C-97.5975 172.1875 -98.2575 172.1875 -98.9375 172.1875 C-98.98648437 172.87714844 -99.03546875 173.56679687 -99.0859375 174.27734375 C-99.57478051 180.42159469 -100.46575599 186.2024077 -101.9375 192.1875 C-102.5975 192.1875 -103.2575 192.1875 -103.9375 192.1875 C-103.9375 195.1575 -103.9375 198.1275 -103.9375 201.1875 C-104.5975 201.1875 -105.2575 201.1875 -105.9375 201.1875 C-105.9375 205.4775 -105.9375 209.7675 -105.9375 214.1875 C-106.5975 214.1875 -107.2575 214.1875 -107.9375 214.1875 C-107.79716889 216.16706441 -107.6500877 218.14615141 -107.5 220.125 C-107.41878906 221.22714844 -107.33757812 222.32929688 -107.25390625 223.46484375 C-107.23331916 226.09859903 -107.23331916 226.09859903 -105.9375 227.1875 C-105.89657063 229.52047433 -105.89508277 231.85455225 -105.9375 234.1875 C-105.2775 234.1875 -104.6175 234.1875 -103.9375 234.1875 C-103.9375 235.5075 -103.9375 236.8275 -103.9375 238.1875 C-103.2775 238.1875 -102.6175 238.1875 -101.9375 238.1875 C-101.9375 238.8475 -101.9375 239.5075 -101.9375 240.1875 C-93.17957098 244.93137822 -85.05157922 246.88036871 -75.1796875 244.53125 C-68.60518378 242.30780268 -62.61009318 238.98554323 -56.58984375 235.578125 C-53.9375 234.1875 -53.9375 234.1875 -51.9375 234.1875 C-51.9375 233.5275 -51.9375 232.8675 -51.9375 232.1875 C-50.0390625 230.4609375 -50.0390625 230.4609375 -47.5625 228.5625 C-46.34433594 227.61503906 -46.34433594 227.61503906 -45.1015625 226.6484375 C-42.9375 225.1875 -42.9375 225.1875 -40.9375 225.1875 C-40.9375 224.5275 -40.9375 223.8675 -40.9375 223.1875 C-40.2775 223.1875 -39.6175 223.1875 -38.9375 223.1875 C-38.74414062 222.29546875 -38.55078125 221.4034375 -38.3515625 220.484375 C-37.96097656 218.72867188 -37.96097656 218.72867188 -37.5625 216.9375 C-37.30726563 215.77734375 -37.05203125 214.6171875 -36.7890625 213.421875 C-36.07953595 210.72697599 -35.30653611 208.59224168 -33.9375 206.1875 C-33.2775 206.1875 -32.6175 206.1875 -31.9375 206.1875 C-31.9375 204.2075 -31.9375 202.2275 -31.9375 200.1875 C-31.2775 200.1875 -30.6175 200.1875 -29.9375 200.1875 C-29.9375 198.8675 -29.9375 197.5475 -29.9375 196.1875 C-29.2775 196.1875 -28.6175 196.1875 -27.9375 196.1875 C-27.9890625 195.32898438 -28.040625 194.47046875 -28.09375 193.5859375 C-27.91899863 189.78509525 -26.97679696 187.27591816 -25.4375 183.8125 C-24.9734375 182.75289062 -24.509375 181.69328125 -24.03125 180.6015625 C-23.6703125 179.80492187 -23.309375 179.00828125 -22.9375 178.1875 C-22.2775 178.1875 -21.6175 178.1875 -20.9375 178.1875 C-20.9375 176.5375 -20.9375 174.8875 -20.9375 173.1875 C-20.2775 173.1875 -19.6175 173.1875 -18.9375 173.1875 C-18.9375 172.1975 -18.9375 171.2075 -18.9375 170.1875 C-18.2775 170.1875 -17.6175 170.1875 -16.9375 170.1875 C-16.6075 168.2075 -16.2775 166.2275 -15.9375 164.1875 C-15.2775 164.1875 -14.6175 164.1875 -13.9375 164.1875 C-13.9375 162.8675 -13.9375 161.5475 -13.9375 160.1875 C-13.2775 160.1875 -12.6175 160.1875 -11.9375 160.1875 C-11.9375 159.1975 -11.9375 158.2075 -11.9375 157.1875 C-11.2775 157.1875 -10.6175 157.1875 -9.9375 157.1875 C-9.83050781 156.46691406 -9.72351563 155.74632812 -9.61328125 155.00390625 C-8.87821925 151.94043976 -7.76284273 149.80774492 -6.125 147.125 C-5.62355469 146.28839844 -5.12210938 145.45179688 -4.60546875 144.58984375 C-2.90504927 142.14076182 -1.17683174 140.15429643 1.0625 138.1875 C1.7225 138.1875 2.3825 138.1875 3.0625 138.1875 C3.0625 137.5275 3.0625 136.8675 3.0625 136.1875 C3.7225 136.1875 4.3825 136.1875 5.0625 136.1875 C5.0625 135.5275 5.0625 134.8675 5.0625 134.1875 C11.75776367 130.57388912 17.31406309 129.55871186 24.875 129.6875 C25.80248047 129.67203125 26.72996094 129.6565625 27.68554688 129.640625 C34.30281494 129.67879237 34.30281494 129.67879237 37.69921875 131.953125 C39.69430579 135.22300978 39.26872048 137.12854261 38.69140625 140.79296875 C37.68929119 144.60847515 35.99660235 147.75602808 34.0625 151.1875 C33.4025 151.1875 32.7425 151.1875 32.0625 151.1875 C31.918125 151.950625 31.77375 152.71375 31.625 153.5 C31.0625 156.1875 31.0625 156.1875 30.0625 159.1875 C29.4025 159.1875 28.7425 159.1875 28.0625 159.1875 C27.959375 160.074375 27.85625 160.96125 27.75 161.875 C27.04310109 165.2809675 25.89992853 167.27823815 24.0625 170.1875 C23.36670546 172.37880534 23.36670546 172.37880534 23.0625 174.1875 C22.4025 174.1875 21.7425 174.1875 21.0625 174.1875 C21.0625 175.5075 21.0625 176.8275 21.0625 178.1875 C20.4025 178.1875 19.7425 178.1875 19.0625 178.1875 C19.0625 179.5075 19.0625 180.8275 19.0625 182.1875 C18.4025 182.1875 17.7425 182.1875 17.0625 182.1875 C16.93875 183.610625 16.93875 183.610625 16.8125 185.0625 C16.12258234 190.07727467 14.05912356 194.57204926 12.0625 199.1875 C11.4025 199.1875 10.7425 199.1875 10.0625 199.1875 C10.0625 200.8375 10.0625 202.4875 10.0625 204.1875 C9.4025 204.1875 8.7425 204.1875 8.0625 204.1875 C7.918125 204.909375 7.77375 205.63125 7.625 206.375 C7.10416667 208.97916667 6.58333333 211.58333333 6.0625 214.1875 C5.4025 214.1875 4.7425 214.1875 4.0625 214.1875 C4.00191406 214.82816406 3.94132813 215.46882812 3.87890625 216.12890625 C3.79511719 216.99386719 3.71132813 217.85882813 3.625 218.75 C3.53734375 219.66136719 3.4496875 220.57273438 3.359375 221.51171875 C3.11588174 223.70636194 2.76073736 225.88834399 2.375 228.0625 C2.05258362 231.28666379 2.26924784 232.55036447 4.0625 235.1875 C5.155625 234.713125 6.24875 234.23875 7.375 233.75 C9.59726255 232.78562191 11.75750485 231.95583172 14.0625 231.1875 C14.0625 230.5275 14.0625 229.8675 14.0625 229.1875 C15.7061814 227.49816078 17.3767876 225.83490076 19.0625 224.1875 C19.784375 223.259375 20.50625 222.33125 21.25 221.375 C21.848125 220.653125 22.44625 219.93125 23.0625 219.1875 C23.7225 219.1875 24.3825 219.1875 25.0625 219.1875 C25.0625 218.5275 25.0625 217.8675 25.0625 217.1875 C25.7225 217.1875 26.3825 217.1875 27.0625 217.1875 C27.289375 216.506875 27.51625 215.82625 27.75 215.125 C29.37476146 211.4886291 31.39053257 208.15920737 34.0625 205.1875 C34.7225 205.1875 35.3825 205.1875 36.0625 205.1875 C36.0625 204.1975 36.0625 203.2075 36.0625 202.1875 C36.7225 202.1875 37.3825 202.1875 38.0625 202.1875 C38.289375 201.548125 38.51625 200.90875 38.75 200.25 C40.54815826 196.05429739 42.80154021 192.14849444 45.0625 188.1875 C45.7225 188.1875 46.3825 188.1875 47.0625 188.1875 C47.0625 187.1975 47.0625 186.2075 47.0625 185.1875 C47.7225 185.1875 48.3825 185.1875 49.0625 185.1875 C49.21525391 184.39085937 49.21525391 184.39085937 49.37109375 183.578125 C50.26558101 180.4853216 51.66111127 177.80298432 53.125 174.9375 C53.67285156 173.85984375 54.22070312 172.7821875 54.78515625 171.671875 C55.20667969 170.85203125 55.62820313 170.0321875 56.0625 169.1875 C56.7225 169.1875 57.3825 169.1875 58.0625 169.1875 C58.0625 168.1975 58.0625 167.2075 58.0625 166.1875 C58.7225 166.1875 59.3825 166.1875 60.0625 166.1875 C60.0625 165.1975 60.0625 164.2075 60.0625 163.1875 C60.7225 163.1875 61.3825 163.1875 62.0625 163.1875 C62.0625 162.1975 62.0625 161.2075 62.0625 160.1875 C62.7225 160.1875 63.3825 160.1875 64.0625 160.1875 C64.18625 159.135625 64.31 158.08375 64.4375 157 C64.97390782 153.72791229 65.70130035 151.18213924 67.0625 148.1875 C67.7225 148.1875 68.3825 148.1875 69.0625 148.1875 C69.0625 147.1975 69.0625 146.2075 69.0625 145.1875 C69.7225 145.1875 70.3825 145.1875 71.0625 145.1875 C71.0625 144.1975 71.0625 143.2075 71.0625 142.1875 C71.7225 142.1875 72.3825 142.1875 73.0625 142.1875 C73.0625 141.5275 73.0625 140.8675 73.0625 140.1875 C73.7225 140.1875 74.3825 140.1875 75.0625 140.1875 C75.31 139.589375 75.5575 138.99125 75.8125 138.375 C77.25442497 135.85163131 78.58799626 134.68719924 81.0625 133.1875 C82.0525 133.1875 83.0425 133.1875 84.0625 133.1875 C84.0625 132.5275 84.0625 131.8675 84.0625 131.1875 C88.51996116 129.70167961 92.89381442 130.00312496 97.5625 130 C98.52542969 129.98775391 99.48835937 129.97550781 100.48046875 129.96289062 C101.40472656 129.96095703 102.32898438 129.95902344 103.28125 129.95703125 C104.12623047 129.95292236 104.97121094 129.94881348 105.84179688 129.94458008 C108.0625 130.1875 108.0625 130.1875 111.0625 132.1875 C111.35546875 134.3515625 111.35546875 134.3515625 111.25 136.8125 C111.22292969 137.62976563 111.19585938 138.44703125 111.16796875 139.2890625 C111.13316406 139.91554687 111.09835937 140.54203125 111.0625 141.1875 C110.4025 141.1875 109.7425 141.1875 109.0625 141.1875 C109.18625 142.425 109.18625 142.425 109.3125 143.6875 C109.03439989 147.5809015 107.9789459 149.7187492 106.15234375 153.0859375 C104.46340111 156.34275163 103.29535919 159.73549427 102.0625 163.1875 C101.4025 163.1875 100.7425 163.1875 100.0625 163.1875 C99.86140625 164.03248047 99.86140625 164.03248047 99.65625 164.89453125 C97.44734943 173.42495646 93.69902943 180.92308258 89.50219727 188.60791016 C85.74421918 195.57866744 82.81507832 202.77173018 80.0625 210.1875 C79.4025 210.1875 78.7425 210.1875 78.0625 210.1875 C78.0625 211.5075 78.0625 212.8275 78.0625 214.1875 C77.4025 214.1875 76.7425 214.1875 76.0625 214.1875 C76.0625 215.8375 76.0625 217.4875 76.0625 219.1875 C75.4025 219.1875 74.7425 219.1875 74.0625 219.1875 C73.959375 220.1775 73.85625 221.1675 73.75 222.1875 C73.35709919 225.05914267 72.6204109 227.45609668 71.5 230.125 C69.82295793 234.40062707 69.52766733 237.60321997 70.0625 242.1875 C71.89591465 244.69270579 71.89591465 244.69270579 74.0625 246.1875 C80.80674838 244.5184003 85.56557366 242.42471406 91.0625 238.1875 C91.7225 238.1875 92.3825 238.1875 93.0625 238.1875 C93.0625 237.5275 93.0625 236.8675 93.0625 236.1875 C95.0425 235.6925 95.0425 235.6925 97.0625 235.1875 C97.0625 234.5275 97.0625 233.8675 97.0625 233.1875 C97.7225 233.1875 98.3825 233.1875 99.0625 233.1875 C99.0625 232.5275 99.0625 231.8675 99.0625 231.1875 C100.70703125 229.49609375 100.70703125 229.49609375 102.875 227.625 C103.58269531 227.00496094 104.29039062 226.38492188 105.01953125 225.74609375 C107.0625 224.1875 107.0625 224.1875 110.0625 223.1875 C110.76401152 221.8721659 111.42775925 220.53632408 112.0625 219.1875 C113.5625 217.4375 113.5625 217.4375 115.0625 216.1875 C115.7225 216.1875 116.3825 216.1875 117.0625 216.1875 C117.0625 215.5275 117.0625 214.8675 117.0625 214.1875 C117.7225 214.1875 118.3825 214.1875 119.0625 214.1875 C119.330625 213.61 119.59875 213.0325 119.875 212.4375 C121.09179189 210.13199957 122.36583879 208.16693808 124.0625 206.1875 C124.7225 206.1875 125.3825 206.1875 126.0625 206.1875 C126.0625 205.5275 126.0625 204.8675 126.0625 204.1875 C126.7225 204.1875 127.3825 204.1875 128.0625 204.1875 C128.0625 203.5275 128.0625 202.8675 128.0625 202.1875 C128.7225 202.1875 129.3825 202.1875 130.0625 202.1875 C130.0625 201.5275 130.0625 200.8675 130.0625 200.1875 C130.7225 200.1875 131.3825 200.1875 132.0625 200.1875 C132.289375 199.671875 132.51625 199.15625 132.75 198.625 C134.54467618 195.29202995 136.56215015 192.04046329 139.0625 189.1875 C139.7225 189.1875 140.3825 189.1875 141.0625 189.1875 C141.0625 188.1975 141.0625 187.2075 141.0625 186.1875 C141.7225 186.1875 142.3825 186.1875 143.0625 186.1875 C143.330625 185.445 143.59875 184.7025 143.875 183.9375 C145.01526751 181.29688051 146.15630306 179.33197156 148.0625 177.1875 C148.7225 177.1875 149.3825 177.1875 150.0625 177.1875 C150.0625 176.1975 150.0625 175.2075 150.0625 174.1875 C150.7225 174.1875 151.3825 174.1875 152.0625 174.1875 C152.3203125 173.48238281 152.578125 172.77726563 152.84375 172.05078125 C154.16580186 168.94480685 155.75997854 166.22771935 157.5625 163.375 C158.1709375 162.39917969 158.779375 161.42335937 159.40625 160.41796875 C159.9528125 159.68191406 160.499375 158.94585937 161.0625 158.1875 C161.7225 158.1875 162.3825 158.1875 163.0625 158.1875 C163.0625 157.1975 163.0625 156.2075 163.0625 155.1875 C163.7225 155.1875 164.3825 155.1875 165.0625 155.1875 C165.0625 154.5275 165.0625 153.8675 165.0625 153.1875 C165.7225 153.1875 166.3825 153.1875 167.0625 153.1875 C167.18625 152.1665625 167.18625 152.1665625 167.3125 151.125 C168.28582528 147.3128093 170.02057455 144.54679671 172.0625 141.1875 C172.7225 141.1875 173.3825 141.1875 174.0625 141.1875 C174.0625 140.5275 174.0625 139.8675 174.0625 139.1875 C174.7225 139.1875 175.3825 139.1875 176.0625 139.1875 C176.0625 138.5275 176.0625 137.8675 176.0625 137.1875 C176.7225 137.1875 177.3825 137.1875 178.0625 137.1875 C178.248125 136.61 178.43375 136.0325 178.625 135.4375 C182.14332385 129.93055831 189.97307148 127.70550539 196.0625 126.1875 C199.32812566 125.84304135 202.53268446 125.85380455 205.8125 125.9375 C207.04806641 125.94523437 207.04806641 125.94523437 208.30859375 125.953125 C212.34342715 126.00510353 216.12745113 126.19573971 220.0625 127.1875 C221.24597782 133.10488912 220.74255454 136.82739093 218.0625 142.1875 C217.4025 142.1875 216.7425 142.1875 216.0625 142.1875 C216.0625 143.1775 216.0625 144.1675 216.0625 145.1875 C215.4025 145.1875 214.7425 145.1875 214.0625 145.1875 C214.0625 145.8475 214.0625 146.5075 214.0625 147.1875 C213.4025 147.1875 212.7425 147.1875 212.0625 147.1875 C212.0625 148.1775 212.0625 149.1675 212.0625 150.1875 C211.4025 150.1875 210.7425 150.1875 210.0625 150.1875 C209.93875 150.950625 209.815 151.71375 209.6875 152.5 C209.0625 155.1875 209.0625 155.1875 207.0625 158.1875 C206.4025 158.1875 205.7425 158.1875 205.0625 158.1875 C204.918125 158.785625 204.77375 159.38375 204.625 160 C204.1752561 161.74900404 203.63357659 163.47427023 203.0625 165.1875 C202.4025 165.1875 201.7425 165.1875 201.0625 165.1875 C201.0625 169.8075 201.0625 174.4275 201.0625 179.1875 C201.7225 179.1875 202.3825 179.1875 203.0625 179.1875 C203.475 180.363125 203.8875 181.53875 204.3125 182.75 C205.56087682 186.07706939 207.06472933 189.06918299 208.87890625 192.1328125 C210.42922551 194.8241258 211.88051762 197.55635509 213.3125 200.3125 C213.83328125 201.30507812 214.3540625 202.29765625 214.890625 203.3203125 C216.07309025 206.2134108 216.31112202 208.10232679 216.0625 211.1875 C216.7225 211.1875 217.3825 211.1875 218.0625 211.1875 C219.97327671 216.91983014 221.9081209 223.12108922 221.0625 229.1875 C219.29887691 231.27178184 217.51302756 232.45363264 215.19140625 233.87890625 C209.23462828 237.54041198 205.03014943 244.58767588 203.0625 251.1875 C202.48825572 256.84250103 202.76676607 262.52255227 203.0625 268.1875 C201.7425 268.1875 200.4225 268.1875 199.0625 268.1875 C199.02125 268.744375 198.98 269.30125 198.9375 269.875 C197.57272892 273.481895 195.15169824 274.91788496 192.0625 277.1875 C191.4025 277.1875 190.7425 277.1875 190.0625 277.1875 C190.0625 277.8475 190.0625 278.5075 190.0625 279.1875 C180.16802601 287.9326159 167.07185291 290.36200087 154.3125 290.4375 C153.02859375 290.4684375 153.02859375 290.4684375 151.71875 290.5 C144.41901429 290.54424082 138.19138726 289.27342484 132.0625 285.1875 C132.0625 284.5275 132.0625 283.8675 132.0625 283.1875 C131.4025 283.1875 130.7425 283.1875 130.0625 283.1875 C130.0625 282.5275 130.0625 281.8675 130.0625 281.1875 C129.4025 281.1875 128.7425 281.1875 128.0625 281.1875 C124.59310976 275.98341464 123.61761553 271.4158826 124.0625 265.1875 C125.0625 261.75 125.0625 261.75 126.0625 259.1875 C126.7225 259.1875 127.3825 259.1875 128.0625 259.1875 C128.0625 258.1975 128.0625 257.2075 128.0625 256.1875 C128.7225 256.1875 129.3825 256.1875 130.0625 256.1875 C130.0625 255.5275 130.0625 254.8675 130.0625 254.1875 C130.7225 254.1875 131.3825 254.1875 132.0625 254.1875 C132.0625 253.5275 132.0625 252.8675 132.0625 252.1875 C139.27802084 245.32395579 146.2466141 243.33417416 156.0625 243.1875 C162.0717682 243.35781894 168.06698883 243.75877808 174.0625 244.1875 C174.0625 239.8975 174.0625 235.6075 174.0625 231.1875 C173.4025 231.1875 172.7425 231.1875 172.0625 231.1875 C171.84207031 230.11435547 171.84207031 230.11435547 171.6171875 229.01953125 C169.79638832 220.93057856 167.10541224 213.45122811 163.0625 206.1875 C162.4025 205.8575 161.7425 205.5275 161.0625 205.1875 C160.4025 206.8375 159.7425 208.4875 159.0625 210.1875 C158.4025 210.1875 157.7425 210.1875 157.0625 210.1875 C157.0625 211.1775 157.0625 212.1675 157.0625 213.1875 C156.4025 213.1875 155.7425 213.1875 155.0625 213.1875 C155.0625 213.8475 155.0625 214.5075 155.0625 215.1875 C154.4025 215.1875 153.7425 215.1875 153.0625 215.1875 C152.753125 215.80625 152.44375 216.425 152.125 217.0625 C151.4375 218.4375 150.75 219.8125 150.0625 221.1875 C149.4025 221.1875 148.7425 221.1875 148.0625 221.1875 C148.0625 221.8475 148.0625 222.5075 148.0625 223.1875 C147.4025 223.1875 146.7425 223.1875 146.0625 223.1875 C146.0625 223.8475 146.0625 224.5075 146.0625 225.1875 C145.4025 225.1875 144.7425 225.1875 144.0625 225.1875 C143.8253125 225.74953125 143.588125 226.3115625 143.34375 226.890625 C141.77302303 229.70644042 139.84778536 231.66705416 137.5625 233.9375 C136.37140625 235.13632812 136.37140625 235.13632812 135.15625 236.359375 C133.0625 238.1875 133.0625 238.1875 131.0625 238.1875 C130.85625 238.72890625 130.65 239.2703125 130.4375 239.828125 C128.52565331 243.10868012 125.85751496 245.42594174 123.0625 247.9375 C122.5159375 248.44410156 121.969375 248.95070313 121.40625 249.47265625 C117.32092318 253.1875 117.32092318 253.1875 115.0625 253.1875 C115.0625 253.8475 115.0625 254.5075 115.0625 255.1875 C111.60096154 258.1875 111.60096154 258.1875 109.0625 258.1875 C109.0625 258.8475 109.0625 259.5075 109.0625 260.1875 C102.3125 264.1875 102.3125 264.1875 100.0625 264.1875 C100.0625 264.8475 100.0625 265.5075 100.0625 266.1875 C87.34551954 275.65198085 72.2366969 281.99627196 56.5 283 C55.70827393 283.05333496 54.91654785 283.10666992 54.10083008 283.16162109 C48.46759322 283.41977461 43.49769615 282.66201481 38.0625 281.1875 C38.0625 280.5275 38.0625 279.8675 38.0625 279.1875 C37.485 279.125625 36.9075 279.06375 36.3125 279 C32.98532768 277.79852111 31.9100512 276.18180712 30.0625 273.1875 C29.45695197 270.48505426 29.25089574 267.96633713 29.0625 265.1875 C28.4025 265.1875 27.7425 265.1875 27.0625 265.1875 C27.0625 261.5575 27.0625 257.9275 27.0625 254.1875 C27.7225 254.1875 28.3825 254.1875 29.0625 254.1875 C28.7325 251.2175 28.4025 248.2475 28.0625 245.1875 C26.4125 248.4875 24.7625 251.7875 23.0625 255.1875 C22.4025 255.1875 21.7425 255.1875 21.0625 255.1875 C21.0625 256.1775 21.0625 257.1675 21.0625 258.1875 C20.4025 258.1875 19.7425 258.1875 19.0625 258.1875 C19.0625 258.8475 19.0625 259.5075 19.0625 260.1875 C18.4025 260.1875 17.7425 260.1875 17.0625 260.1875 C16.753125 260.80625 16.44375 261.425 16.125 262.0625 C15.4375 263.4375 14.75 264.8125 14.0625 266.1875 C13.4025 266.1875 12.7425 266.1875 12.0625 266.1875 C12.0625 266.8475 12.0625 267.5075 12.0625 268.1875 C11.4025 268.1875 10.7425 268.1875 10.0625 268.1875 C10.0625 268.8475 10.0625 269.5075 10.0625 270.1875 C6.60096154 273.1875 6.60096154 273.1875 4.0625 273.1875 C3.7325 274.1775 3.4025 275.1675 3.0625 276.1875 C-4.58599162 281.30166999 -13.75604178 284.00727306 -22.9375 283.1875 C-27.5060711 281.98114818 -31.74517556 280.36410185 -35.9375 278.1875 C-35.9375 277.5275 -35.9375 276.8675 -35.9375 276.1875 C-36.5975 276.1875 -37.2575 276.1875 -37.9375 276.1875 C-38.2675 274.2075 -38.5975 272.2275 -38.9375 270.1875 C-39.5975 270.1875 -40.2575 270.1875 -40.9375 270.1875 C-40.9375 268.8675 -40.9375 267.5475 -40.9375 266.1875 C-41.5975 266.1875 -42.2575 266.1875 -42.9375 266.1875 C-42.9375 264.5375 -42.9375 262.8875 -42.9375 261.1875 C-44.2575 261.5175 -45.5775 261.8475 -46.9375 262.1875 C-46.9375 262.8475 -46.9375 263.5075 -46.9375 264.1875 C-48.2575 264.5175 -49.5775 264.8475 -50.9375 265.1875 C-50.9375 265.8475 -50.9375 266.5075 -50.9375 267.1875 C-53.01953125 268.6953125 -53.01953125 268.6953125 -55.75 270.3125 C-56.64332031 270.85132813 -57.53664063 271.39015625 -58.45703125 271.9453125 C-60.9375 273.1875 -60.9375 273.1875 -63.9375 273.1875 C-63.9375 273.8475 -63.9375 274.5075 -63.9375 275.1875 C-81.99668353 283.97184359 -103.29837488 286.08274473 -122.69921875 280.375 C-131.16669441 277.26291094 -139.00690524 271.90089256 -143.9375 264.1875 C-143.9375 263.1975 -143.9375 262.2075 -143.9375 261.1875 C-144.5975 261.1875 -145.2575 261.1875 -145.9375 261.1875 C-145.9375 259.2075 -145.9375 257.2275 -145.9375 255.1875 C-146.5975 255.1875 -147.2575 255.1875 -147.9375 255.1875 C-150.14696643 250.76474453 -150.19836051 246.66067071 -150.1328125 241.82421875 C-150.12856766 240.63624443 -150.12856766 240.63624443 -150.12423706 239.42427063 C-150.11308863 236.90769001 -150.08799422 234.39147211 -150.0625 231.875 C-150.05246329 230.16341662 -150.04333864 228.45182763 -150.03515625 226.74023438 C-150.01316681 222.55585094 -149.97867408 218.37173686 -149.9375 214.1875 C-150.63149902 214.45087158 -151.32549805 214.71424316 -152.04052734 214.9855957 C-157.82615807 217.14198617 -163.53017905 219.05425676 -169.5625 220.375 C-170.31450684 220.54225586 -171.06651367 220.70951172 -171.84130859 220.88183594 C-179.82271282 222.54622034 -187.80466248 222.98160538 -195.9375 223.1875 C-195.9375 223.8475 -195.9375 224.5075 -195.9375 225.1875 C-196.5975 225.1875 -197.2575 225.1875 -197.9375 225.1875 C-197.9375 226.5075 -197.9375 227.8275 -197.9375 229.1875 C-198.5975 229.1875 -199.2575 229.1875 -199.9375 229.1875 C-199.9375 230.5075 -199.9375 231.8275 -199.9375 233.1875 C-200.5975 233.1875 -201.2575 233.1875 -201.9375 233.1875 C-202.246875 233.97125 -202.55625 234.755 -202.875 235.5625 C-203.9375 238.1875 -203.9375 238.1875 -204.9375 240.1875 C-205.5975 240.1875 -206.2575 240.1875 -206.9375 240.1875 C-206.9375 241.1775 -206.9375 242.1675 -206.9375 243.1875 C-207.5975 243.1875 -208.2575 243.1875 -208.9375 243.1875 C-209.5975 244.8375 -210.2575 246.4875 -210.9375 248.1875 C-211.5975 248.1875 -212.2575 248.1875 -212.9375 248.1875 C-213.205625 248.765 -213.47375 249.3425 -213.75 249.9375 C-214.96679189 252.24300043 -216.24083879 254.20806192 -217.9375 256.1875 C-218.5975 256.1875 -219.2575 256.1875 -219.9375 256.1875 C-219.9375 256.8475 -219.9375 257.5075 -219.9375 258.1875 C-221.3984375 259.6953125 -221.3984375 259.6953125 -223.3125 261.3125 C-223.93898438 261.85132813 -224.56546875 262.39015625 -225.2109375 262.9453125 C-226.9375 264.1875 -226.9375 264.1875 -228.9375 264.1875 C-228.9375 264.8475 -228.9375 265.5075 -228.9375 266.1875 C-246.41319416 278.8866951 -265.04437709 285.10141983 -286.63671875 282.9140625 C-294.14097499 281.63314275 -301.15487344 278.57881328 -307.9375 275.1875 C-307.9375 274.5275 -307.9375 273.8675 -307.9375 273.1875 C-309.2575 272.8575 -310.5775 272.5275 -311.9375 272.1875 C-311.9375 271.5275 -311.9375 270.8675 -311.9375 270.1875 C-312.9275 269.8575 -313.9175 269.5275 -314.9375 269.1875 C-317.80685543 265.49832874 -318.9375 263.94317676 -318.9375 259.1875 C-319.5975 259.1875 -320.2575 259.1875 -320.9375 259.1875 C-320.9375 257.8675 -320.9375 256.5475 -320.9375 255.1875 C-321.5975 255.1875 -322.2575 255.1875 -322.9375 255.1875 C-322.9375 250.2375 -322.9375 245.2875 -322.9375 240.1875 C-324.2575 240.1875 -325.5775 240.1875 -326.9375 240.1875 C-327.03224609 241.03054688 -327.03224609 241.03054688 -327.12890625 241.890625 C-328.27820147 245.15528969 -330.29247232 246.66991472 -332.875 248.9375 C-333.77089844 249.73671875 -334.66679687 250.5359375 -335.58984375 251.359375 C-337.9375 253.1875 -337.9375 253.1875 -339.9375 253.1875 C-339.9375 253.8475 -339.9375 254.5075 -339.9375 255.1875 C-341.8359375 256.6953125 -341.8359375 256.6953125 -344.3125 258.3125 C-345.12460937 258.85132813 -345.93671875 259.39015625 -346.7734375 259.9453125 C-348.9375 261.1875 -348.9375 261.1875 -350.9375 261.1875 C-350.9375 261.8475 -350.9375 262.5075 -350.9375 263.1875 C-355.08808295 266.13454401 -359.52877215 268.64661643 -363.9375 271.1875 C-364.77152344 271.66960937 -365.60554687 272.15171875 -366.46484375 272.6484375 C-388.23879219 284.33565085 -418.3172597 286.89405282 -442 280.4375 C-444.32060518 279.71296716 -446.63324871 278.96247241 -448.9375 278.1875 C-450.75507813 277.57648438 -450.75507813 277.57648438 -452.609375 276.953125 C-461.67037827 273.80316249 -470.15003385 270.10335554 -478.6875 265.75 C-485.26530871 262.40254877 -492.00910194 259.73204234 -498.9375 257.1875 C-499.80632812 256.81496094 -500.67515625 256.44242187 -501.5703125 256.05859375 C-504.74334922 254.89095813 -507.58790569 255.05614336 -510.9375 255.1875 C-511.04191406 255.78046875 -511.14632812 256.3734375 -511.25390625 256.984375 C-512.0380641 259.51160372 -512.98804524 260.6105218 -514.875 262.4375 C-515.39964844 262.95828125 -515.92429687 263.4790625 -516.46484375 264.015625 C-517.9375 265.1875 -517.9375 265.1875 -519.9375 265.1875 C-519.9375 265.8475 -519.9375 266.5075 -519.9375 267.1875 C-520.576875 267.290625 -521.21625 267.39375 -521.875 267.5 C-522.8959375 267.8403125 -522.8959375 267.8403125 -523.9375 268.1875 C-524.2675 269.1775 -524.5975 270.1675 -524.9375 271.1875 C-540.71628533 281.8361003 -559.94985484 285.26475613 -578.625 282.5 C-584.01350956 281.42699737 -588.3522969 279.15373016 -592.9375 276.1875 C-592.9375 275.5275 -592.9375 274.8675 -592.9375 274.1875 C-593.5975 274.1875 -594.2575 274.1875 -594.9375 274.1875 C-599.30905775 269.19027321 -599.50265536 265.09528621 -599.3125 258.625 C-599.31121094 257.78775391 -599.30992187 256.95050781 -599.30859375 256.08789062 C-599.24603953 251.69866961 -598.97663705 248.17605207 -596.9375 244.1875 C-596.2775 244.1875 -595.6175 244.1875 -594.9375 244.1875 C-594.9375 243.1975 -594.9375 242.2075 -594.9375 241.1875 C-594.2775 241.1875 -593.6175 241.1875 -592.9375 241.1875 C-592.669375 240.383125 -592.40125 239.57875 -592.125 238.75 C-591.733125 237.904375 -591.34125 237.05875 -590.9375 236.1875 C-589.9475 235.8575 -588.9575 235.5275 -587.9375 235.1875 C-587.66550781 234.58808594 -587.39351562 233.98867188 -587.11328125 233.37109375 C-583.41784786 226.50814602 -570.75752418 221.75690887 -563.73046875 219.21484375 C-552.43695604 216.15594175 -540.55352769 215.30015228 -528.9375 214.1875 C-528.96714844 213.42179688 -528.99679687 212.65609375 -529.02734375 211.8671875 C-528.91118439 208.40260844 -527.48040551 206.27331103 -525.9375 203.1875 C-525.2238276 199.44978166 -525.2238276 199.44978166 -524.9375 196.1875 C-524.2775 196.1875 -523.6175 196.1875 -522.9375 196.1875 C-522.9375 194.2075 -522.9375 192.2275 -522.9375 190.1875 C-522.2775 190.1875 -521.6175 190.1875 -520.9375 190.1875 C-521.2675 189.1975 -521.5975 188.2075 -521.9375 187.1875 C-521.21805934 185.22538911 -520.4924484 183.26477002 -519.70703125 181.328125 C-518.61473765 178.28966362 -518.27127666 175.39175598 -517.9375 172.1875 C-517.2775 172.1875 -516.6175 172.1875 -515.9375 172.1875 C-515.9375 170.8675 -515.9375 169.5475 -515.9375 168.1875 C-515.2775 168.1875 -514.6175 168.1875 -513.9375 168.1875 C-513.9375 165.8775 -513.9375 163.5675 -513.9375 161.1875 C-513.2775 161.1875 -512.6175 161.1875 -511.9375 161.1875 C-511.9375 159.5375 -511.9375 157.8875 -511.9375 156.1875 C-511.2775 156.1875 -510.6175 156.1875 -509.9375 156.1875 C-509.958125 155.135625 -509.97875 154.08375 -510 153 C-509.94853198 149.86045096 -509.67232813 147.21866604 -508.9375 144.1875 C-508.2775 144.1875 -507.6175 144.1875 -506.9375 144.1875 C-506.97875 143.135625 -507.02 142.08375 -507.0625 141 C-506.94602125 137.44739827 -506.46541932 135.33883359 -504.9375 132.1875 C-504.2775 132.1875 -503.6175 132.1875 -502.9375 132.1875 C-502.9375 129.8775 -502.9375 127.5675 -502.9375 125.1875 C-502.2775 125.1875 -501.6175 125.1875 -500.9375 125.1875 C-500.9375 123.5375 -500.9375 121.8875 -500.9375 120.1875 C-500.2775 120.1875 -499.6175 120.1875 -498.9375 120.1875 C-498.6075 116.8875 -498.2775 113.5875 -497.9375 110.1875 C-497.2775 110.1875 -496.6175 110.1875 -495.9375 110.1875 C-495.97875 109.465625 -496.02 108.74375 -496.0625 108 C-495.92828695 104.98020631 -495.18579381 102.91814271 -493.9375 100.1875 C-493.2775 100.1875 -492.6175 100.1875 -491.9375 100.1875 C-491.9375 98.5375 -491.9375 96.8875 -491.9375 95.1875 C-491.2775 95.1875 -490.6175 95.1875 -489.9375 95.1875 C-489.81246094 94.6203125 -489.68742187 94.053125 -489.55859375 93.46875 C-488.90652269 91.0737217 -488.02516815 88.94673848 -487 86.6875 C-486.49146484 85.55828125 -486.49146484 85.55828125 -485.97265625 84.40625 C-484.99644873 82.31385049 -483.98124792 80.24691293 -482.9375 78.1875 C-482.2775 78.1875 -481.6175 78.1875 -480.9375 78.1875 C-480.9375 77.1975 -480.9375 76.2075 -480.9375 75.1875 C-480.2775 75.1875 -479.6175 75.1875 -478.9375 75.1875 C-478.9375 74.1975 -478.9375 73.2075 -478.9375 72.1875 C-478.2775 72.1875 -477.6175 72.1875 -476.9375 72.1875 C-476.9375 71.1975 -476.9375 70.2075 -476.9375 69.1875 C-476.2775 69.1875 -475.6175 69.1875 -474.9375 69.1875 C-474.6075 67.5375 -474.2775 65.8875 -473.9375 64.1875 C-473.2775 64.1875 -472.6175 64.1875 -471.9375 64.1875 C-471.9375 63.5275 -471.9375 62.8675 -471.9375 62.1875 C-471.2775 62.1875 -470.6175 62.1875 -469.9375 62.1875 C-469.2775 60.5375 -468.6175 58.8875 -467.9375 57.1875 C-467.2775 57.1875 -466.6175 57.1875 -465.9375 57.1875 C-465.9375 56.5275 -465.9375 55.8675 -465.9375 55.1875 C-465.2775 55.1875 -464.6175 55.1875 -463.9375 55.1875 C-463.710625 54.630625 -463.48375 54.07375 -463.25 53.5 C-461.56199964 50.52590412 -459.47073483 48.46741135 -456.9375 46.1875 C-456.2775 46.1875 -455.6175 46.1875 -454.9375 46.1875 C-454.9375 45.5275 -454.9375 44.8675 -454.9375 44.1875 C-454.2775 44.1875 -453.6175 44.1875 -452.9375 44.1875 C-452.6075 43.1975 -452.2775 42.2075 -451.9375 41.1875 C-448.49305556 38.1875 -448.49305556 38.1875 -445.9375 38.1875 C-445.9375 37.5275 -445.9375 36.8675 -445.9375 36.1875 C-443.9731647 34.75406613 -441.9978203 33.47419808 -439.9375 32.1875 C-439.17179688 31.68089844 -438.40609375 31.17429688 -437.6171875 30.65234375 C-432.34804676 27.19987691 -426.9711611 24.00461333 -421.4375 21 C-420.85750244 20.6793457 -420.27750488 20.35869141 -419.67993164 20.02832031 C-414.30815996 17.16238955 -408.68772896 15.15982252 -402.9375 13.1875 C-401.71595215 12.75304565 -401.71595215 12.75304565 -400.46972656 12.30981445 C-386.34860923 7.48333875 -372.66679202 6.56832543 -357.875 6.5 C-356.99994812 6.48892212 -356.12489624 6.47784424 -355.22332764 6.46643066 C-339.91640247 6.32510838 -327.09066659 8.81082209 -313.9375 17.1875 C-313.9375 17.8475 -313.9375 18.5075 -313.9375 19.1875 C-313.1021875 19.496875 -313.1021875 19.496875 -312.25 19.8125 C-308.94146768 21.77973543 -307.2219372 24.07812714 -304.9375 27.1875 C-304.9375 28.1775 -304.9375 29.1675 -304.9375 30.1875 C-304.2775 30.1875 -303.6175 30.1875 -302.9375 30.1875 C-302.9375 31.5075 -302.9375 32.8275 -302.9375 34.1875 C-302.2775 34.1875 -301.6175 34.1875 -300.9375 34.1875 C-299.23416507 38.63655332 -298.68095743 42.33551517 -298.671875 47.08984375 C-298.66929687 48.39244141 -298.66671875 49.69503906 -298.6640625 51.03710938 C-298.66825195 51.70895264 -298.67244141 52.3807959 -298.67675781 53.07299805 C-298.68745302 55.11602596 -298.67684201 57.15817122 -298.6640625 59.20117188 C-298.66792969 61.15700195 -298.66792969 61.15700195 -298.671875 63.15234375 C-298.67413086 64.3343335 -298.67638672 65.51632324 -298.67871094 66.73413086 C-298.96256477 70.52197285 -299.77924748 73.58305725 -300.9375 77.1875 C-301.5975 77.1875 -302.2575 77.1875 -302.9375 77.1875 C-302.9375 79.4975 -302.9375 81.8075 -302.9375 84.1875 C-303.5975 84.1875 -304.2575 84.1875 -304.9375 84.1875 C-305.06125 85.26 -305.185 86.3325 -305.3125 87.4375 C-305.83393936 90.56613615 -306.33838254 92.52230424 -307.9375 95.1875 C-308.5975 95.1875 -309.2575 95.1875 -309.9375 95.1875 C-309.9375 96.1775 -309.9375 97.1675 -309.9375 98.1875 C-310.5975 98.1875 -311.2575 98.1875 -311.9375 98.1875 C-312.5975 99.8375 -313.2575 101.4875 -313.9375 103.1875 C-314.5975 103.1875 -315.2575 103.1875 -315.9375 103.1875 C-316.18242187 103.94804687 -316.42734375 104.70859375 -316.6796875 105.4921875 C-319.21487603 110.92473436 -325.47668762 113.72532598 -330.8125 116.0625 C-337.445769 118.26918511 -344.33056222 118.31800799 -350.625 115.1875 C-351.718125 114.5275 -352.81125 113.8675 -353.9375 113.1875 C-353.9375 112.5275 -353.9375 111.8675 -353.9375 111.1875 C-354.5975 111.1875 -355.2575 111.1875 -355.9375 111.1875 C-355.9375 105.5775 -355.9375 99.9675 -355.9375 94.1875 C-355.2775 94.1875 -354.6175 94.1875 -353.9375 94.1875 C-353.9375 92.8675 -353.9375 91.5475 -353.9375 90.1875 C-353.2775 90.1875 -352.6175 90.1875 -351.9375 90.1875 C-351.9375 88.5375 -351.9375 86.8875 -351.9375 85.1875 C-351.2775 85.1875 -350.6175 85.1875 -349.9375 85.1875 C-349.88851562 84.61902344 -349.83953125 84.05054687 -349.7890625 83.46484375 C-349.30606919 78.47668871 -348.46111837 73.96150422 -346.9375 69.1875 C-346.2775 69.1875 -345.6175 69.1875 -344.9375 69.1875 C-345.19669259 62.02082482 -345.97588711 57.19381632 -349.9375 51.1875 C-349.9375 50.5275 -349.9375 49.8675 -349.9375 49.1875 C-351.59734798 48.50403318 -353.26586805 47.84161685 -354.9375 47.1875 C-355.7728125 46.83945313 -356.608125 46.49140625 -357.46875 46.1328125 C-362.13252506 44.86182876 -366.50205616 44.89684836 -371.3125 44.9375 C-372.22 44.92976563 -373.1275 44.92203125 -374.0625 44.9140625 C-385.08435792 44.94582578 -394.621503 48.28437012 -404.2734375 53.41796875 C-405.9375 54.1875 -405.9375 54.1875 -407.9375 54.1875 C-407.9375 54.8475 -407.9375 55.5075 -407.9375 56.1875 C-409.5875 56.8475 -411.2375 57.5075 -412.9375 58.1875 C-412.9375 58.8475 -412.9375 59.5075 -412.9375 60.1875 C-416.39903846 63.1875 -416.39903846 63.1875 -418.9375 63.1875 C-419.205625 63.765 -419.47375 64.3425 -419.75 64.9375 C-420.96679189 67.24300043 -422.24083879 69.20806192 -423.9375 71.1875 C-424.5975 71.1875 -425.2575 71.1875 -425.9375 71.1875 C-425.9375 71.8475 -425.9375 72.5075 -425.9375 73.1875 C-426.5975 73.1875 -427.2575 73.1875 -427.9375 73.1875 C-427.9375 74.1775 -427.9375 75.1675 -427.9375 76.1875 C-428.5975 76.1875 -429.2575 76.1875 -429.9375 76.1875 C-429.9375 76.8475 -429.9375 77.5075 -429.9375 78.1875 C-430.5975 78.1875 -431.2575 78.1875 -431.9375 78.1875 C-432.2675 80.1675 -432.5975 82.1475 -432.9375 84.1875 C-433.5975 84.1875 -434.2575 84.1875 -434.9375 84.1875 C-435.0921875 84.9609375 -435.0921875 84.9609375 -435.25 85.75 C-436.18013866 89.04776435 -437.55145512 92.05383332 -438.9375 95.1875 C-439.5975 95.1875 -440.2575 95.1875 -440.9375 95.1875 C-440.9375 96.1775 -440.9375 97.1675 -440.9375 98.1875 C-441.5975 98.1875 -442.2575 98.1875 -442.9375 98.1875 C-442.999375 99.115625 -443.06125 100.04375 -443.125 101 C-443.74987894 105.5793367 -445.7548673 109.42739062 -447.78125 113.5390625 C-448.90335139 116.10928124 -449.49895485 118.42665894 -449.9375 121.1875 C-450.5975 121.1875 -451.2575 121.1875 -451.9375 121.1875 C-451.9375 122.5075 -451.9375 123.8275 -451.9375 125.1875 C-452.5975 125.1875 -453.2575 125.1875 -453.9375 125.1875 C-454.2675 128.4875 -454.5975 131.7875 -454.9375 135.1875 C-455.5975 135.1875 -456.2575 135.1875 -456.9375 135.1875 C-456.9375 137.1675 -456.9375 139.1475 -456.9375 141.1875 C-457.5975 141.1875 -458.2575 141.1875 -458.9375 141.1875 C-458.9375 142.8375 -458.9375 144.4875 -458.9375 146.1875 C-459.5975 146.1875 -460.2575 146.1875 -460.9375 146.1875 C-460.89625 147.074375 -460.855 147.96125 -460.8125 148.875 C-460.93647246 152.16027013 -461.55137904 154.24199295 -462.9375 157.1875 C-463.5975 157.1875 -464.2575 157.1875 -464.9375 157.1875 C-464.97488281 157.75597656 -465.01226562 158.32445312 -465.05078125 158.91015625 C-465.51035229 164.30786322 -466.63667295 168.29824252 -468.9375 173.1875 C-469.31058631 174.51026056 -469.66796415 175.83982077 -469.9375 177.1875 C-470.5975 177.1875 -471.2575 177.1875 -471.9375 177.1875 C-471.9375 179.1675 -471.9375 181.1475 -471.9375 183.1875 C-472.5975 183.1875 -473.2575 183.1875 -473.9375 183.1875 C-474.06125 183.868125 -474.185 184.54875 -474.3125 185.25 C-475.68782529 191.71402888 -477.81815701 197.9384658 -479.9375 204.1875 C-480.2675 205.1775 -480.5975 206.1675 -480.9375 207.1875 C-481.5975 207.1875 -482.2575 207.1875 -482.9375 207.1875 C-482.9375 208.8375 -482.9375 210.4875 -482.9375 212.1875 C-483.5975 212.1875 -484.2575 212.1875 -484.9375 212.1875 C-484.9375 213.5075 -484.9375 214.8275 -484.9375 216.1875 C-485.5975 216.1875 -486.2575 216.1875 -486.9375 216.1875 C-486.6075 217.1775 -486.2775 218.1675 -485.9375 219.1875 C-483.91374563 219.97865689 -483.91374563 219.97865689 -481.3984375 220.36328125 C-480.43663574 220.54834229 -479.47483398 220.73340332 -478.48388672 220.92407227 C-477.4373291 221.11412842 -476.39077148 221.30418457 -475.3125 221.5 C-460.44230367 224.39124109 -445.85849049 228.15923727 -431.3125 232.375 C-421.26134043 235.27786197 -411.41632433 237.68325582 -400.9375 238.1875 C-400.15246094 238.22875 -399.36742187 238.27 -398.55859375 238.3125 C-383.60893161 238.70656029 -368.06326904 235.61402265 -355.0625 227.9921875 C-351.9375 226.1875 -351.9375 226.1875 -349.9375 226.1875 C-349.9375 225.5275 -349.9375 224.8675 -349.9375 224.1875 C-348.20201831 222.74223264 -346.39774037 221.3787778 -344.5625 220.0625 C-343.56476563 219.33804688 -342.56703125 218.61359375 -341.5390625 217.8671875 C-338.9375 216.1875 -338.9375 216.1875 -336.9375 216.1875 C-336.6075 215.1975 -336.2775 214.2075 -335.9375 213.1875 C-330.90768517 209.58194396 -324.93226109 208.2421339 -318.9375 207.1875 C-318.999375 205.8571875 -318.999375 205.8571875 -319.0625 204.5 C-318.93852754 201.21472987 -318.32362096 199.13300705 -316.9375 196.1875 C-316.2775 196.1875 -315.6175 196.1875 -314.9375 196.1875 C-314.81375 195.135625 -314.69 194.08375 -314.5625 193 C-314.02609218 189.72791229 -313.29869965 187.18213924 -311.9375 184.1875 C-311.2775 184.1875 -310.6175 184.1875 -309.9375 184.1875 C-309.9375 183.1975 -309.9375 182.2075 -309.9375 181.1875 C-309.2775 181.1875 -308.6175 181.1875 -307.9375 181.1875 C-307.9375 180.1975 -307.9375 179.2075 -307.9375 178.1875 C-307.2775 178.1875 -306.6175 178.1875 -305.9375 178.1875 C-305.9375 177.1975 -305.9375 176.2075 -305.9375 175.1875 C-305.2775 175.1875 -304.6175 175.1875 -303.9375 175.1875 C-303.81375 174.424375 -303.69 173.66125 -303.5625 172.875 C-302.9375 170.1875 -302.9375 170.1875 -300.9375 167.1875 C-300.2775 167.1875 -299.6175 167.1875 -298.9375 167.1875 C-298.9375 166.5275 -298.9375 165.8675 -298.9375 165.1875 C-298.2775 165.1875 -297.6175 165.1875 -296.9375 165.1875 C-296.9375 164.5275 -296.9375 163.8675 -296.9375 163.1875 C-296.2775 163.1875 -295.6175 163.1875 -294.9375 163.1875 C-294.9375 162.5275 -294.9375 161.8675 -294.9375 161.1875 C-294.2775 161.1875 -293.6175 161.1875 -292.9375 161.1875 C-292.710625 160.630625 -292.48375 160.07375 -292.25 159.5 C-289.82329746 155.22438123 -286.50499627 152.04833181 -281.9375 150.1875 C-281.9375 149.5275 -281.9375 148.8675 -281.9375 148.1875 C-280.42797852 147.01416016 -280.42797852 147.01416016 -278.31640625 145.7265625 C-277.54490234 145.25476563 -276.77339844 144.78296875 -275.97851562 144.296875 C-275.16060547 143.80703125 -274.34269531 143.3171875 -273.5 142.8125 C-272.71689453 142.33039063 -271.93378906 141.84828125 -271.12695312 141.3515625 C-264.36841787 137.25750329 -257.41952397 133.73053415 -249.8125 131.5 C-249.04679687 131.26925781 -248.28109375 131.03851563 -247.4921875 130.80078125 C-230.94022141 126.82729704 -215.00691221 128.6527939 -199.9375 136.1875 C-199.9375 136.8475 -199.9375 137.5075 -199.9375 138.1875 C-199.380625 138.39375 -198.82375 138.6 -198.25 138.8125 C-194.02729087 141.32330003 -190.6351631 145.55750973 -188.9375 150.1875 C-188.9375 151.5075 -188.9375 152.8275 -188.9375 154.1875 C-188.2775 154.1875 -187.6175 154.1875 -186.9375 154.1875 C-186.9375 155.8375 -186.9375 157.4875 -186.9375 159.1875 C-186.2775 159.1875 -185.6175 159.1875 -184.9375 159.1875 C-184.87691406 160.03054687 -184.81632812 160.87359375 -184.75390625 161.7421875 C-184.62822266 163.38574219 -184.62822266 163.38574219 -184.5 165.0625 C-184.41878906 166.15304688 -184.33757812 167.24359375 -184.25390625 168.3671875 C-184.10748297 171.13478971 -184.10748297 171.13478971 -182.9375 173.1875 C-182.81601695 174.80915752 -182.76206348 176.43634327 -182.75 178.0625 C-182.73582031 178.92617187 -182.72164063 179.78984375 -182.70703125 180.6796875 C-182.94890748 183.3116288 -183.60766459 184.92730544 -184.9375 187.1875 C-174.72439454 186.98971099 -165.14263126 185.13927833 -155.203125 182.9152832 C-154.20667969 182.69445068 -153.21023438 182.47361816 -152.18359375 182.24609375 C-151.29341553 182.04298584 -150.4032373 181.83987793 -149.48608398 181.63061523 C-146.9163121 181.18381612 -144.54012331 181.10822486 -141.9375 181.1875 C-141.793125 179.888125 -141.64875 178.58875 -141.5 177.25 C-141.0625 173.3125 -141.0625 173.3125 -139.9375 172.1875 C-139.793125 171.07375 -139.64875 169.96 -139.5 168.8125 C-138.9375 165.1875 -138.9375 165.1875 -136.9375 162.1875 C-137.83210938 162.23390625 -138.72671875 162.2803125 -139.6484375 162.328125 C-147.69445901 162.56830475 -153.753547 161.89534671 -160.9375 158.1875 C-160.9375 157.5275 -160.9375 156.8675 -160.9375 156.1875 C-161.5975 156.1875 -162.2575 156.1875 -162.9375 156.1875 C-162.9375 153.2175 -162.9375 150.2475 -162.9375 147.1875 C-162.2775 147.1875 -161.6175 147.1875 -160.9375 147.1875 C-161.02 146.15625 -161.1025 145.125 -161.1875 144.0625 C-160.89797708 139.57489467 -159.77794077 137.6127374 -156.9375 134.1875 C-156.2775 134.1875 -155.6175 134.1875 -154.9375 134.1875 C-154.5971875 133.259375 -154.5971875 133.259375 -154.25 132.3125 C-152.5029955 129.48401652 -151.09528883 129.12048306 -147.9375 128.1875 C-142.77665123 127.09608183 -137.80759922 127.07062497 -132.5625 127.125 C-131.73105469 127.12951172 -130.89960938 127.13402344 -130.04296875 127.13867188 C-128.00778103 127.15036836 -125.97263077 127.16830065 -123.9375 127.1875 C-123.2775 124.8775 -122.6175 122.5675 -121.9375 120.1875 C-121.2775 120.1875 -120.6175 120.1875 -119.9375 120.1875 C-119.855 119.0325 -119.7725 117.8775 -119.6875 116.6875 C-119.12263317 111.96622502 -117.27581147 108.2768261 -114.9375 104.1875 C-114.2775 104.1875 -113.6175 104.1875 -112.9375 104.1875 C-112.9375 102.8675 -112.9375 101.5475 -112.9375 100.1875 C-112.2775 100.1875 -111.6175 100.1875 -110.9375 100.1875 C-110.9375 98.8675 -110.9375 97.5475 -110.9375 96.1875 C-110.2775 96.1875 -109.6175 96.1875 -108.9375 96.1875 C-108.855 95.3625 -108.7725 94.5375 -108.6875 93.6875 C-107.77302731 89.41996079 -106.01526822 85.99513106 -103.9375 82.1875 C-103.2775 82.1875 -102.6175 82.1875 -101.9375 82.1875 C-101.9375 81.1975 -101.9375 80.2075 -101.9375 79.1875 C-101.2775 79.1875 -100.6175 79.1875 -99.9375 79.1875 C-99.9375 77.8675 -99.9375 76.5475 -99.9375 75.1875 C-99.2775 75.1875 -98.6175 75.1875 -97.9375 75.1875 C-97.81375 74.630625 -97.69 74.07375 -97.5625 73.5 C-96.87773145 70.96635636 -95.94616237 68.60828968 -94.9375 66.1875 C-94.2775 66.1875 -93.6175 66.1875 -92.9375 66.1875 C-92.9375 65.1975 -92.9375 64.2075 -92.9375 63.1875 C-92.2775 63.1875 -91.6175 63.1875 -90.9375 63.1875 C-90.9375 62.1975 -90.9375 61.2075 -90.9375 60.1875 C-90.2775 60.1875 -89.6175 60.1875 -88.9375 60.1875 C-88.9375 59.1975 -88.9375 58.2075 -88.9375 57.1875 C-88.2775 57.1875 -87.6175 57.1875 -86.9375 57.1875 C-86.9375 56.5275 -86.9375 55.8675 -86.9375 55.1875 C-86.2775 55.1875 -85.6175 55.1875 -84.9375 55.1875 C-84.628125 54.23875 -84.31875 53.29 -84 52.3125 C-82.9375 49.1875 -82.9375 49.1875 -81.9375 47.1875 C-81.2775 47.1875 -80.6175 47.1875 -79.9375 47.1875 C-79.2775 45.5375 -78.6175 43.8875 -77.9375 42.1875 C-77.2775 42.1875 -76.6175 42.1875 -75.9375 42.1875 C-75.9375 41.5275 -75.9375 40.8675 -75.9375 40.1875 C-75.2775 40.1875 -74.6175 40.1875 -73.9375 40.1875 C-73.669375 39.445 -73.40125 38.7025 -73.125 37.9375 C-71.98473249 35.29688051 -70.84369694 33.33197156 -68.9375 31.1875 C-68.2775 31.1875 -67.6175 31.1875 -66.9375 31.1875 C-66.9375 30.5275 -66.9375 29.8675 -66.9375 29.1875 C-66.2775 29.1875 -65.6175 29.1875 -64.9375 29.1875 C-64.9375 28.5275 -64.9375 27.8675 -64.9375 27.1875 C-64.2775 27.1875 -63.6175 27.1875 -62.9375 27.1875 C-62.710625 26.630625 -62.48375 26.07375 -62.25 25.5 C-60.56199964 22.52590412 -58.47073483 20.46741135 -55.9375 18.1875 C-55.2775 18.1875 -54.6175 18.1875 -53.9375 18.1875 C-53.9375 17.5275 -53.9375 16.8675 -53.9375 16.1875 C-49.46691176 12.1875 -49.46691176 12.1875 -46.9375 12.1875 C-46.9375 11.5275 -46.9375 10.8675 -46.9375 10.1875 C-45.52421871 9.36912558 -44.10671654 8.55803781 -42.6875 7.75 C-41.89859375 7.29753906 -41.1096875 6.84507813 -40.296875 6.37890625 C-38.14916532 5.29438398 -36.28544939 4.65601284 -33.9375 4.1875 C-33.9375 3.5275 -33.9375 2.8675 -33.9375 2.1875 C-23.51479984 -1.81024801 -10.68205537 -4.95815831 0 0 Z M-33.9375 33.1875 C-33.9375 33.8475 -33.9375 34.5075 -33.9375 35.1875 C-34.5975 35.1875 -35.2575 35.1875 -35.9375 35.1875 C-35.9375 35.8475 -35.9375 36.5075 -35.9375 37.1875 C-36.5975 37.1875 -37.2575 37.1875 -37.9375 37.1875 C-37.9375 37.8475 -37.9375 38.5075 -37.9375 39.1875 C-38.5975 39.1875 -39.2575 39.1875 -39.9375 39.1875 C-42.25342022 42.40864157 -42.25342022 42.40864157 -42.9375 46.1875 C-43.5975 46.1875 -44.2575 46.1875 -44.9375 46.1875 C-44.9375 47.1775 -44.9375 48.1675 -44.9375 49.1875 C-45.5975 49.1875 -46.2575 49.1875 -46.9375 49.1875 C-46.9375 50.1775 -46.9375 51.1675 -46.9375 52.1875 C-47.5975 52.1875 -48.2575 52.1875 -48.9375 52.1875 C-48.9375 53.1775 -48.9375 54.1675 -48.9375 55.1875 C-49.5975 55.1875 -50.2575 55.1875 -50.9375 55.1875 C-50.9375 56.1775 -50.9375 57.1675 -50.9375 58.1875 C-51.5975 58.1875 -52.2575 58.1875 -52.9375 58.1875 C-53.58660154 59.76949631 -54.23164694 61.35315724 -54.875 62.9375 C-55.23464844 63.81921875 -55.59429688 64.7009375 -55.96484375 65.609375 C-56.79106576 67.79936104 -57.43119943 69.90648271 -57.9375 72.1875 C-58.5975 72.1875 -59.2575 72.1875 -59.9375 72.1875 C-59.9375 73.1775 -59.9375 74.1675 -59.9375 75.1875 C-60.5975 75.1875 -61.2575 75.1875 -61.9375 75.1875 C-61.9375 76.5075 -61.9375 77.8275 -61.9375 79.1875 C-62.5975 79.1875 -63.2575 79.1875 -63.9375 79.1875 C-64.19144531 80.00734375 -64.44539062 80.8271875 -64.70703125 81.671875 C-65.05121094 82.74953125 -65.39539063 83.8271875 -65.75 84.9375 C-66.25466797 86.53851563 -66.25466797 86.53851563 -66.76953125 88.171875 C-67.9375 91.1875 -67.9375 91.1875 -69.57421875 93.328125 C-71.33169347 95.34087185 -71.33169347 95.34087185 -70.9375 99.1875 C-71.5975 99.1875 -72.2575 99.1875 -72.9375 99.1875 C-73.17984375 99.9609375 -73.4221875 100.734375 -73.671875 101.53125 C-75.66551547 107.72687114 -77.85156475 113.4564774 -80.9375 119.1875 C-79.9475 119.5175 -78.9575 119.8475 -77.9375 120.1875 C-76.885625 119.1046875 -76.885625 119.1046875 -75.8125 118 C-73.84756927 116.01817874 -71.80571544 114.24042847 -69.625 112.5 C-68.738125 111.736875 -67.85125 110.97375 -66.9375 110.1875 C-66.9375 109.5275 -66.9375 108.8675 -66.9375 108.1875 C-66.0403125 107.7853125 -66.0403125 107.7853125 -65.125 107.375 C-62.93902146 106.18832594 -61.52417406 105.09150887 -59.9375 103.1875 C-59.9375 102.5275 -59.9375 101.8675 -59.9375 101.1875 C-59.2775 101.1875 -58.6175 101.1875 -57.9375 101.1875 C-57.9375 100.5275 -57.9375 99.8675 -57.9375 99.1875 C-57.2775 99.1875 -56.6175 99.1875 -55.9375 99.1875 C-55.9375 98.5275 -55.9375 97.8675 -55.9375 97.1875 C-55.2775 97.1875 -54.6175 97.1875 -53.9375 97.1875 C-53.9375 96.1975 -53.9375 95.2075 -53.9375 94.1875 C-53.2775 94.1875 -52.6175 94.1875 -51.9375 94.1875 C-50.5768991 92.70113242 -50.5768991 92.70113242 -49.3125 90.8125 C-48.86648438 90.18601563 -48.42046875 89.55953125 -47.9609375 88.9140625 C-46.76753031 87.23527357 -46.76753031 87.23527357 -46.9375 85.1875 C-46.2775 85.1875 -45.6175 85.1875 -44.9375 85.1875 C-44.9375 84.1975 -44.9375 83.2075 -44.9375 82.1875 C-44.2775 82.1875 -43.6175 82.1875 -42.9375 82.1875 C-42.9375 81.1975 -42.9375 80.2075 -42.9375 79.1875 C-42.2775 79.1875 -41.6175 79.1875 -40.9375 79.1875 C-40.09365325 77.77707044 -39.26280504 76.35885868 -38.4375 74.9375 C-37.9734375 74.14859375 -37.509375 73.3596875 -37.03125 72.546875 C-35.65711224 70.01609107 -35.65711224 70.01609107 -35.9375 66.1875 C-35.2775 66.1875 -34.6175 66.1875 -33.9375 66.1875 C-33.9375 65.1975 -33.9375 64.2075 -33.9375 63.1875 C-33.2775 63.1875 -32.6175 63.1875 -31.9375 63.1875 C-31.9375 61.5375 -31.9375 59.8875 -31.9375 58.1875 C-31.2775 58.1875 -30.6175 58.1875 -29.9375 58.1875 C-29.9375 56.8675 -29.9375 55.5475 -29.9375 54.1875 C-29.2775 54.1875 -28.6175 54.1875 -27.9375 54.1875 C-27.1224764 49.2003318 -26.80239035 44.44498817 -26.8125 39.375 C-26.80992187 38.06917969 -26.80734375 36.76335938 -26.8046875 35.41796875 C-26.71182045 32.29711322 -26.71182045 32.29711322 -27.9375 30.1875 C-30.73658133 30.1875 -31.86472373 31.3910939 -33.9375 33.1875 Z M-254.9375 170.1875 C-254.9375 170.8475 -254.9375 171.5075 -254.9375 172.1875 C-255.535625 172.455625 -256.13375 172.72375 -256.75 173 C-258.93597854 174.18667406 -260.35082594 175.28349113 -261.9375 177.1875 C-261.9375 177.8475 -261.9375 178.5075 -261.9375 179.1875 C-262.5975 179.1875 -263.2575 179.1875 -263.9375 179.1875 C-263.9375 179.8475 -263.9375 180.5075 -263.9375 181.1875 C-264.5975 181.1875 -265.2575 181.1875 -265.9375 181.1875 C-265.9375 182.1775 -265.9375 183.1675 -265.9375 184.1875 C-266.5975 184.1875 -267.2575 184.1875 -267.9375 184.1875 C-267.9375 184.8475 -267.9375 185.5075 -267.9375 186.1875 C-268.5975 186.1875 -269.2575 186.1875 -269.9375 186.1875 C-270.44583591 187.43413331 -270.94381145 188.68499387 -271.4375 189.9375 C-271.7159375 190.63359375 -271.994375 191.3296875 -272.28125 192.046875 C-273.13290327 194.45172695 -273.13290327 194.45172695 -272.9375 198.1875 C-273.5975 198.1875 -274.2575 198.1875 -274.9375 198.1875 C-276.93535435 202.3080746 -277.11585515 205.63944365 -276.9375 210.1875 C-277.5975 210.1875 -278.2575 210.1875 -278.9375 210.1875 C-278.9375 212.1675 -278.9375 214.1475 -278.9375 216.1875 C-279.5975 216.1875 -280.2575 216.1875 -280.9375 216.1875 C-280.9375 222.4575 -280.9375 228.7275 -280.9375 235.1875 C-280.2775 235.1875 -279.6175 235.1875 -278.9375 235.1875 C-278.875625 235.909375 -278.81375 236.63125 -278.75 237.375 C-277.67514294 241.09565907 -275.8132227 242.64616366 -272.9375 245.1875 C-272.3290625 245.73148437 -271.720625 246.27546875 -271.09375 246.8359375 C-267.00499176 249.39881857 -262.45354124 248.2133212 -257.9375 247.1875 C-254.74112842 245.78679119 -251.83554368 244.12668478 -248.9375 242.1875 C-248.9375 241.5275 -248.9375 240.8675 -248.9375 240.1875 C-247.9784375 239.7853125 -247.9784375 239.7853125 -247 239.375 C-244.60618314 238.30082248 -244.60618314 238.30082248 -243.9375 235.1875 C-243.2775 235.1875 -242.6175 235.1875 -241.9375 235.1875 C-241.2775 233.5375 -240.6175 231.8875 -239.9375 230.1875 C-239.2775 230.1875 -238.6175 230.1875 -237.9375 230.1875 C-237.9375 229.1975 -237.9375 228.2075 -237.9375 227.1875 C-237.2775 227.1875 -236.6175 227.1875 -235.9375 227.1875 C-235.9375 226.1975 -235.9375 225.2075 -235.9375 224.1875 C-235.2775 224.1875 -234.6175 224.1875 -233.9375 224.1875 C-231.89905831 220.11061662 -231.85990245 217.59585361 -232.9375 213.1875 C-233.2675 212.5275 -233.5975 211.8675 -233.9375 211.1875 C-234.5975 211.1875 -235.2575 211.1875 -235.9375 211.1875 C-235.9375 210.5275 -235.9375 209.8675 -235.9375 209.1875 C-236.5975 209.1875 -237.2575 209.1875 -237.9375 209.1875 C-238.06125 208.61 -238.185 208.0325 -238.3125 207.4375 C-238.83061934 205.19820865 -238.83061934 205.19820865 -239.9621582 203.44311523 C-241.24556156 200.47506428 -241.17981237 198.0767834 -241.16796875 194.84765625 C-241.16603516 193.61982422 -241.16410156 192.39199219 -241.16210938 191.12695312 C-241.14374023 189.20786133 -241.14374023 189.20786133 -241.125 187.25 C-241.12435547 185.97447266 -241.12371094 184.69894531 -241.12304688 183.38476562 C-241.07429069 173.05387131 -241.07429069 173.05387131 -239.9375 168.1875 C-239.2775 168.1875 -238.6175 168.1875 -237.9375 168.1875 C-237.9375 167.1975 -237.9375 166.2075 -237.9375 165.1875 C-245.01237342 164.54432969 -249.03243185 166.36014102 -254.9375 170.1875 Z " fill="#EF4E6B" transform="translate(602.9375,26.8125)"/>
</svg>
